<svg id="svg" version="1.1" xmlns="http://www.w3.org/2000/svg" xmlns:xlink="http://www.w3.org/1999/xlink" width="400" height="400" viewBox="0, 0, 400,400"><g id="svgg"><path id="path0" d="M130.417 137.990 C 129.456 138.151,129.455 138.152,124.360 142.212 C 121.803 144.249,118.107 147.189,116.147 148.743 C 112.435 151.687,106.909 156.079,103.333 158.925 L 101.250 160.583 97.917 160.583 C 94.066 160.583,93.393 160.761,92.710 161.956 L 92.352 162.581 84.551 162.529 C 72.287 162.448,67.963 162.860,66.677 164.236 C 66.454 164.475,65.354 165.117,64.233 165.662 C 60.447 167.503,59.892 168.634,62.121 169.970 C 65.622 172.068,70.248 172.701,84.417 173.019 C 89.275 173.128,93.276 173.238,93.307 173.263 C 93.338 173.288,93.224 173.933,93.052 174.696 L 92.740 176.083 89.912 176.183 C 85.594 176.335,84.500 176.973,84.500 179.336 C 84.500 181.733,86.022 182.413,90.333 181.942 C 91.479 181.816,92.433 181.726,92.452 181.740 C 92.471 181.753,92.303 183.562,92.079 185.757 C 91.854 187.953,91.670 189.844,91.669 189.958 C 91.665 190.310,92.835 190.185,94.069 189.702 L 95.221 189.250 96.452 186.250 C 97.129 184.600,98.125 182.162,98.664 180.833 C 100.439 176.461,101.818 173.127,101.874 173.070 C 102.002 172.943,122.362 170.473,122.461 170.573 C 122.494 170.605,122.246 171.504,121.910 172.569 C 121.235 174.713,121.242 175.068,121.955 174.898 C 122.600 174.744,122.547 174.801,124.582 172.027 L 126.415 169.531 128.368 168.926 C 130.442 168.285,130.833 168.001,130.833 167.137 C 130.833 166.619,130.516 165.833,130.307 165.833 C 129.797 165.833,130.903 164.394,137.211 156.847 C 139.015 154.688,139.314 154.253,139.084 154.124 C 138.673 153.894,138.123 154.094,137.224 154.800 C 135.078 156.486,128.147 161.685,127.939 161.765 C 127.707 161.854,127.353 160.552,126.001 154.642 L 125.633 153.034 124.769 152.926 C 123.217 152.732,122.704 153.033,122.087 154.500 C 121.798 155.188,120.818 157.498,119.910 159.634 L 118.259 163.518 116.171 163.408 C 115.023 163.348,113.222 163.250,112.169 163.191 L 110.255 163.083 115.002 158.092 C 131.454 140.795,133.824 138.258,133.626 138.154 C 133.290 137.978,131.144 137.868,130.417 137.990 M93.993 161.996 C 94.921 162.493,94.795 165.333,93.846 165.333 C 93.018 165.333,92.584 163.245,93.212 162.285 C 93.544 161.778,93.568 161.769,93.993 161.996 M75.792 163.793 C 75.876 164.046,75.293 164.122,71.667 164.333 C 69.971 164.431,68.283 164.554,67.917 164.605 C 67.307 164.691,67.272 164.677,67.508 164.431 C 68.065 163.852,75.618 163.270,75.792 163.793 M92.333 163.860 C 92.333 164.219,92.330 164.219,89.307 164.110 C 87.642 164.049,84.154 164.000,81.557 164.000 C 77.469 164.000,76.833 163.966,76.833 163.750 C 76.833 163.531,77.806 163.500,84.583 163.500 L 92.333 163.500 92.333 163.860 M117.639 164.592 C 123.353 164.980,124.436 165.120,124.123 165.432 C 124.004 165.552,111.048 164.716,110.818 164.574 C 110.545 164.405,110.660 164.167,111.014 164.167 C 111.205 164.167,114.186 164.358,117.639 164.592 M86.337 178.261 C 86.838 179.579,86.247 181.635,85.560 180.960 C 85.198 180.604,85.036 178.723,85.321 178.189 C 85.586 177.695,86.137 177.733,86.337 178.261 M253.045 211.040 C 253.099 224.322,253.145 226.649,253.382 228.120 C 255.212 239.457,260.697 244.862,271.183 245.662 C 281.856 246.477,289.031 242.239,291.810 233.480 C 293.330 228.686,293.417 227.445,293.417 210.417 L 293.417 195.750 287.167 195.750 L 280.917 195.750 280.820 211.417 C 280.751 222.569,280.667 227.323,280.527 227.917 C 279.440 232.520,277.662 234.257,273.833 234.458 C 269.662 234.676,267.467 232.890,266.455 228.455 C 266.115 226.967,266.101 226.403,266.010 211.333 L 265.917 195.750 259.450 195.706 L 252.982 195.663 253.045 211.040 M311.515 197.292 C 311.243 198.185,310.485 200.679,309.829 202.833 C 309.174 204.987,308.089 208.550,307.417 210.750 C 306.746 212.950,305.547 216.887,304.754 219.500 C 303.960 222.112,302.795 225.938,302.165 228.000 C 301.535 230.063,300.261 234.262,299.334 237.333 C 298.406 240.404,297.507 243.349,297.334 243.877 L 297.021 244.837 303.710 244.794 L 310.400 244.750 310.700 243.500 C 310.865 242.813,311.393 240.525,311.875 238.417 L 312.750 234.583 319.618 234.540 L 326.486 234.496 326.651 235.123 C 326.930 236.185,328.636 243.546,328.757 244.208 L 328.870 244.833 335.788 244.833 C 342.296 244.833,342.701 244.816,342.623 244.542 C 342.578 244.381,341.922 242.225,341.166 239.750 C 340.409 237.275,339.358 233.825,338.830 232.083 C 338.301 230.342,337.253 226.892,336.500 224.417 C 335.747 221.942,334.733 218.604,334.246 217.000 C 333.759 215.396,332.524 211.346,331.501 208.000 C 330.477 204.654,329.271 200.679,328.821 199.167 C 328.370 197.654,327.928 196.248,327.837 196.042 L 327.674 195.667 319.842 195.667 L 312.010 195.667 311.515 197.292 M67.000 220.333 L 67.000 244.833 72.851 244.833 L 78.703 244.833 78.619 235.542 C 78.531 225.649,78.495 225.063,77.482 217.028 C 76.736 211.103,76.680 211.028,79.724 220.011 C 81.043 223.901,83.276 230.177,84.686 233.958 L 87.250 240.833 90.736 240.791 L 94.222 240.750 97.113 233.000 C 98.703 228.737,100.946 222.512,102.098 219.167 C 104.770 211.406,104.834 211.313,104.246 216.083 C 103.142 225.029,103.126 225.288,103.045 235.375 L 102.970 244.833 108.818 244.833 L 114.667 244.833 114.667 220.333 L 114.667 195.833 107.769 195.833 L 100.870 195.833 100.276 197.458 C 99.950 198.352,99.235 200.358,98.689 201.917 C 98.142 203.475,97.082 206.475,96.332 208.583 C 94.206 214.562,93.402 216.983,92.319 220.667 C 91.766 222.546,91.278 224.190,91.234 224.320 C 91.064 224.832,90.769 224.076,89.574 220.062 C 88.896 217.782,87.894 214.717,87.348 213.250 C 86.802 211.783,85.708 208.821,84.917 206.667 C 84.126 204.512,82.902 201.194,82.198 199.292 L 80.917 195.834 73.958 195.834 L 67.000 195.833 67.000 220.333 M125.833 220.333 L 125.833 244.833 132.248 244.833 L 138.663 244.833 138.707 237.042 L 138.750 229.250 143.333 229.154 C 150.070 229.014,152.912 228.298,156.833 225.755 C 165.996 219.812,165.970 203.883,156.790 198.692 C 152.235 196.116,150.259 195.841,136.292 195.837 L 125.833 195.833 125.833 220.333 M171.667 220.333 L 171.667 244.833 178.167 244.833 L 184.667 244.833 184.667 220.333 L 184.667 195.833 178.167 195.833 L 171.667 195.833 171.667 220.333 M208.667 196.086 C 198.992 197.417,194.160 202.590,194.169 211.610 C 194.175 218.031,196.689 222.610,201.850 225.599 C 202.437 225.939,202.937 226.232,202.962 226.251 C 202.987 226.269,202.714 226.727,202.356 227.267 C 201.100 229.163,191.067 244.419,190.941 244.625 C 190.840 244.790,192.333 244.833,198.198 244.831 L 205.583 244.828 207.333 241.802 C 208.296 240.138,210.443 236.445,212.104 233.597 L 215.124 228.417 217.229 228.370 L 219.333 228.323 219.333 236.578 L 219.333 244.833 225.833 244.833 L 232.333 244.833 232.333 220.333 L 232.333 195.833 221.292 195.851 C 213.203 195.863,209.827 195.926,208.667 196.086 M319.948 206.428 C 320.066 206.880,320.655 209.425,321.257 212.083 C 321.859 214.742,322.750 218.567,323.239 220.583 L 324.126 224.250 319.705 224.294 C 317.273 224.319,315.263 224.319,315.238 224.294 C 315.213 224.269,315.375 223.499,315.598 222.583 C 316.511 218.825,318.340 210.741,318.852 208.205 C 319.428 205.348,319.596 205.076,319.948 206.428 M145.631 206.173 C 149.344 206.775,150.924 208.570,150.908 212.167 C 150.884 217.242,148.361 219.082,141.583 218.965 L 138.750 218.917 138.706 212.667 C 138.682 209.230,138.699 206.324,138.743 206.209 C 138.844 205.946,144.063 205.918,145.631 206.173 M219.333 212.107 L 219.333 218.214 215.958 218.120 C 212.311 218.018,211.234 217.830,209.788 217.042 C 205.985 214.972,205.696 208.754,209.318 206.926 C 209.981 206.591,210.465 206.456,212.250 206.104 C 212.433 206.068,214.102 206.030,215.958 206.019 L 219.333 206.000 219.333 212.107 M144.789 256.517 C 145.115 257.760,148.333 257.747,148.333 256.502 C 148.333 256.053,147.672 256.052,147.289 256.500 C 147.132 256.683,146.814 256.833,146.583 256.833 C 146.352 256.833,146.035 256.683,145.878 256.500 C 145.474 256.028,144.665 256.041,144.789 256.517 M166.333 256.417 C 166.333 257.515,168.789 257.889,169.625 256.918 C 170.283 256.152,169.562 255.772,168.833 256.500 C 168.650 256.683,168.324 256.833,168.109 256.833 C 167.894 256.833,167.583 256.683,167.417 256.500 C 167.060 256.106,166.333 256.050,166.333 256.417 M116.167 258.208 C 115.810 259.050,113.667 264.893,113.667 265.025 C 113.667 265.103,113.885 265.167,114.152 265.167 C 114.598 265.167,114.668 265.079,115.025 264.083 L 115.414 263.000 116.841 263.000 L 118.269 263.000 118.601 264.042 C 118.910 265.009,118.972 265.087,119.467 265.136 C 119.760 265.164,120.000 265.127,119.999 265.052 C 119.998 264.944,118.448 260.510,117.635 258.292 C 117.410 257.677,116.416 257.621,116.167 258.208 M127.485 258.221 C 124.931 259.570,125.178 263.950,127.872 265.075 C 130.760 266.282,133.413 263.443,132.493 260.130 C 131.952 258.184,129.398 257.211,127.485 258.221 M177.333 258.250 C 177.333 258.589,177.251 258.667,176.894 258.667 C 175.425 258.667,174.111 259.727,173.909 261.077 C 173.636 262.900,175.056 264.494,176.958 264.499 C 177.247 264.500,177.333 264.596,177.333 264.917 C 177.333 265.269,177.411 265.333,177.833 265.333 C 178.248 265.333,178.333 265.266,178.333 264.939 C 178.333 264.599,178.435 264.531,179.084 264.442 C 182.701 263.947,182.806 259.205,179.212 258.694 C 178.557 258.600,178.407 258.514,178.363 258.207 C 178.281 257.627,177.333 257.666,177.333 258.250 M184.917 257.975 C 182.023 258.916,181.781 263.751,184.564 265.014 C 187.110 266.171,189.507 264.430,189.496 261.433 C 189.487 258.869,187.284 257.205,184.917 257.975 M100.667 261.583 L 100.667 265.167 102.578 265.167 C 105.257 265.167,106.167 264.646,106.167 263.110 C 106.167 261.572,105.557 261.116,103.342 261.000 L 101.750 260.917 101.750 259.917 L 101.750 258.917 103.708 258.870 L 105.667 258.823 105.667 258.411 L 105.667 258.000 103.167 258.000 L 100.667 258.000 100.667 261.583 M108.167 259.886 C 108.167 262.917,107.783 264.333,106.963 264.333 C 106.401 264.333,106.635 265.237,107.214 265.303 C 108.350 265.434,108.958 263.999,109.118 260.804 L 109.218 258.833 110.442 258.833 L 111.667 258.833 111.667 262.000 L 111.667 265.167 112.167 265.167 L 112.667 265.167 112.667 261.583 L 112.667 258.000 110.417 258.000 L 108.167 258.000 108.167 259.886 M120.833 261.583 L 120.833 265.167 121.333 265.167 L 121.833 265.167 121.833 262.000 L 121.833 258.833 123.500 258.833 L 125.167 258.833 125.167 258.417 L 125.167 258.000 123.000 258.000 L 120.833 258.000 120.833 261.583 M134.772 258.375 C 134.716 258.581,134.670 259.176,134.669 259.696 C 134.664 261.951,134.110 264.333,133.592 264.333 C 133.383 264.333,133.333 264.557,133.333 265.500 C 133.333 266.633,133.345 266.667,133.750 266.667 C 134.133 266.667,134.167 266.606,134.167 265.917 L 134.167 265.167 136.667 265.167 L 139.167 265.167 139.167 265.917 C 139.167 266.639,139.185 266.667,139.667 266.667 L 140.167 266.667 140.167 265.500 C 140.167 264.367,140.155 264.333,139.750 264.333 L 139.333 264.333 139.333 261.167 L 139.333 258.000 137.103 258.000 C 134.930 258.000,134.870 258.010,134.772 258.375 M141.000 261.583 L 141.000 265.167 141.500 265.167 L 142.000 265.167 142.000 261.583 L 142.000 258.000 141.500 258.000 L 141.000 258.000 141.000 261.583 M143.667 261.593 L 143.667 265.187 144.278 265.135 C 144.875 265.085,144.930 265.018,146.653 262.254 L 148.417 259.425 148.462 262.296 L 148.508 265.167 149.004 265.167 L 149.500 265.167 149.500 261.573 L 149.500 257.980 148.875 258.032 C 148.262 258.082,148.220 258.132,146.500 260.871 L 144.750 263.658 144.704 260.829 L 144.659 258.000 144.163 258.000 L 143.667 258.000 143.667 261.593 M150.833 261.583 L 150.833 265.167 151.333 265.167 L 151.833 265.167 151.833 263.500 L 151.833 261.833 153.750 261.833 L 155.667 261.833 155.667 263.500 L 155.667 265.167 156.167 265.167 L 156.667 265.167 156.667 261.583 L 156.667 258.000 156.173 258.000 L 155.680 258.000 155.631 259.458 L 155.583 260.917 153.750 260.917 L 151.917 260.917 151.869 259.458 L 151.820 258.000 151.327 258.000 L 150.833 258.000 150.833 261.583 M158.111 258.111 C 158.050 258.172,158.000 259.789,158.000 261.705 L 158.000 265.187 158.625 265.135 C 159.238 265.084,159.280 265.034,161.000 262.296 L 162.750 259.509 162.796 262.338 L 162.841 265.167 163.337 265.167 L 163.833 265.167 163.833 261.583 L 163.833 258.000 163.261 258.000 C 162.701 258.000,162.649 258.063,160.969 260.743 C 160.024 262.252,159.194 263.489,159.125 263.493 C 159.056 263.497,159.000 262.262,159.000 260.750 L 159.000 258.000 158.611 258.000 C 158.397 258.000,158.172 258.050,158.111 258.111 M165.333 261.583 L 165.333 265.167 165.875 265.165 C 166.395 265.163,166.485 265.052,168.167 262.340 L 169.917 259.516 169.962 262.341 L 170.008 265.167 170.504 265.167 L 171.000 265.167 171.000 261.583 L 171.000 258.000 170.431 258.000 C 169.876 258.000,169.818 258.069,168.139 260.738 L 166.417 263.477 166.371 260.738 L 166.325 258.000 165.829 258.000 L 165.333 258.000 165.333 261.583 M190.500 261.583 L 190.500 265.167 190.994 265.167 L 191.488 265.167 191.536 263.542 L 191.583 261.917 193.458 261.870 L 195.333 261.822 195.333 263.495 L 195.333 265.167 195.833 265.167 L 196.333 265.167 196.333 261.583 L 196.333 258.000 195.840 258.000 L 195.346 258.000 195.298 259.458 L 195.250 260.917 193.417 260.917 L 191.583 260.917 191.535 259.458 L 191.487 258.000 190.994 258.000 L 190.500 258.000 190.500 261.583 M198.698 260.375 C 198.462 263.270,198.219 264.229,197.702 264.303 C 197.362 264.352,197.333 264.447,197.333 265.512 L 197.333 266.667 197.833 266.667 C 198.315 266.667,198.333 266.639,198.333 265.917 L 198.333 265.167 200.833 265.167 L 203.333 265.167 203.333 265.917 C 203.333 266.606,203.367 266.667,203.750 266.667 C 204.366 266.667,204.406 264.391,203.792 264.303 C 203.420 264.250,203.416 264.223,203.371 261.125 L 203.326 258.000 201.109 258.000 L 198.891 258.000 198.698 260.375 M130.644 259.119 C 132.509 260.485,131.812 264.091,129.619 264.420 C 127.068 264.803,125.593 261.266,127.505 259.353 C 128.264 258.595,129.775 258.482,130.644 259.119 M187.477 259.124 C 189.338 260.511,188.725 264.026,186.550 264.434 C 184.661 264.788,183.256 263.049,183.661 260.857 C 184.005 258.994,186.054 258.063,187.477 259.124 M138.250 261.583 L 138.250 264.250 136.612 264.298 C 135.104 264.342,134.981 264.322,135.064 264.048 C 135.331 263.169,135.509 262.008,135.607 260.503 L 135.718 258.820 136.984 258.868 L 138.250 258.917 138.250 261.583 M202.333 261.583 L 202.333 264.333 200.731 264.333 L 199.130 264.333 199.250 263.708 C 199.478 262.523,199.656 260.914,199.661 259.986 C 199.668 258.816,199.647 258.833,201.111 258.833 L 202.333 258.833 202.333 261.583 M117.447 260.708 L 117.939 262.083 116.950 262.133 C 115.690 262.197,115.718 262.257,116.275 260.678 C 116.859 259.026,116.844 259.025,117.447 260.708 M177.333 261.602 L 177.333 263.704 176.708 263.590 C 174.175 263.127,174.320 259.587,176.875 259.513 L 177.333 259.500 177.333 261.602 M179.744 259.737 C 181.297 260.385,181.197 262.809,179.593 263.422 C 178.383 263.884,178.333 263.808,178.333 261.505 L 178.333 259.500 178.755 259.500 C 178.987 259.500,179.432 259.607,179.744 259.737 M104.682 262.145 C 105.855 263.095,105.010 264.235,103.125 264.244 L 101.750 264.250 101.701 263.042 L 101.652 261.833 102.974 261.833 C 104.018 261.833,104.378 261.899,104.682 262.145 M95.167 262.167 C 95.167 262.263,95.694 262.333,96.417 262.333 C 97.139 262.333,97.667 262.263,97.667 262.167 C 97.667 262.070,97.139 262.000,96.417 262.000 C 95.694 262.000,95.167 262.070,95.167 262.167 M64.833 262.333 C 64.833 262.441,66.556 262.500,69.667 262.500 C 72.778 262.500,74.500 262.441,74.500 262.333 C 74.500 262.226,72.778 262.167,69.667 262.167 C 66.556 262.167,64.833 262.226,64.833 262.333 M74.833 262.333 C 74.833 262.441,76.556 262.500,79.667 262.500 C 82.778 262.500,84.500 262.441,84.500 262.333 C 84.500 262.226,82.778 262.167,79.667 262.167 C 76.556 262.167,74.833 262.226,74.833 262.333 M84.833 262.333 C 84.833 262.441,86.556 262.500,89.667 262.500 C 92.778 262.500,94.500 262.441,94.500 262.333 C 94.500 262.226,92.778 262.167,89.667 262.167 C 86.556 262.167,84.833 262.226,84.833 262.333 M204.250 262.333 C 204.315 262.438,206.113 262.500,209.093 262.500 C 212.142 262.500,213.833 262.441,213.833 262.333 C 213.833 262.226,212.108 262.167,208.990 262.167 C 205.804 262.167,204.182 262.224,204.250 262.333 M214.250 262.333 C 214.315 262.438,216.113 262.500,219.093 262.500 C 222.142 262.500,223.833 262.441,223.833 262.333 C 223.833 262.226,222.108 262.167,218.990 262.167 C 215.804 262.167,214.182 262.224,214.250 262.333 M224.250 262.333 C 224.315 262.438,226.113 262.500,229.093 262.500 C 232.142 262.500,233.833 262.441,233.833 262.333 C 233.833 262.226,232.108 262.167,228.990 262.167 C 225.804 262.167,224.182 262.224,224.250 262.333 " stroke="none" fill="#c6d0da" fill-rule="evenodd"></path><path id="path1" d="M0.000 200.000 L 0.000 400.000 200.000 400.000 L 400.000 400.000 400.000 200.000 L 400.000 0.000 200.000 0.000 L 0.000 0.000 0.000 200.000 M230.000 134.976 C 230.000 135.054,228.905 136.948,227.566 139.184 C 226.227 141.420,224.771 143.860,224.330 144.605 L 223.529 145.961 224.431 147.465 L 225.333 148.969 227.458 148.402 C 232.950 146.936,238.473 145.837,243.718 145.168 C 246.511 144.812,252.941 144.385,253.101 144.545 C 253.171 144.615,248.660 152.331,246.790 155.340 C 246.668 155.536,247.406 156.849,249.898 160.868 C 251.696 163.767,253.167 166.183,253.167 166.236 C 253.167 166.290,252.428 166.333,251.524 166.333 C 246.148 166.333,237.987 167.536,229.989 169.508 C 224.432 170.877,221.262 171.811,205.000 176.862 C 195.469 179.823,187.191 181.992,181.271 183.079 C 175.280 184.179,165.973 184.911,166.222 184.262 C 166.273 184.131,167.740 181.536,169.483 178.494 L 172.653 172.965 171.811 171.717 C 171.098 170.660,170.914 170.485,170.610 170.573 C 167.497 171.474,158.968 173.347,155.833 173.817 C 150.178 174.665,143.023 175.116,143.216 174.612 C 143.274 174.460,144.707 171.914,146.399 168.955 C 148.091 165.996,149.500 163.496,149.529 163.401 C 149.559 163.306,148.140 161.007,146.375 158.292 C 144.610 155.577,143.167 153.322,143.167 153.281 C 143.167 153.240,144.198 153.158,145.458 153.097 C 156.231 152.582,166.498 150.350,185.000 144.502 C 206.907 137.578,216.273 135.461,227.000 135.008 C 228.604 134.941,229.935 134.874,229.958 134.859 C 229.981 134.845,230.000 134.897,230.000 134.976 M133.836 138.110 C 133.909 138.187,132.607 139.685,130.942 141.439 C 121.924 150.943,116.099 157.074,113.468 159.829 L 110.520 162.917 111.552 163.021 C 112.119 163.079,113.858 163.176,115.417 163.238 L 118.250 163.351 119.117 161.300 C 119.594 160.173,120.520 157.975,121.174 156.417 C 122.593 153.039,122.768 152.833,124.227 152.833 C 125.667 152.833,125.721 152.903,126.330 155.583 C 127.328 159.975,127.708 161.583,127.776 161.701 C 127.813 161.765,128.460 161.348,129.214 160.774 C 137.509 154.449,138.140 154.000,138.740 154.000 C 139.639 154.000,139.531 154.205,137.125 157.086 C 134.515 160.211,133.578 161.348,131.631 163.753 L 130.179 165.546 130.495 165.948 C 131.692 167.470,130.883 168.402,127.604 169.276 L 126.513 169.566 124.578 172.194 C 122.853 174.539,122.581 174.834,122.059 174.932 C 121.112 175.110,121.083 174.901,121.757 172.762 C 122.094 171.691,122.328 170.773,122.277 170.721 C 122.225 170.670,119.948 170.899,117.217 171.231 C 114.485 171.563,110.638 172.025,108.667 172.259 C 106.696 172.492,104.378 172.773,103.516 172.883 L 101.948 173.083 101.221 174.833 C 100.459 176.668,99.138 179.900,96.767 185.735 C 95.183 189.634,95.401 189.350,93.544 189.937 C 91.389 190.619,91.476 190.870,92.023 185.541 C 92.223 183.592,92.353 181.964,92.311 181.922 C 92.270 181.881,91.564 181.917,90.743 182.004 C 86.448 182.455,85.000 182.025,84.494 180.143 C 83.758 177.411,85.415 176.167,89.957 176.041 L 92.663 175.966 92.821 175.358 C 92.907 175.024,93.027 174.406,93.087 173.986 L 93.196 173.221 85.723 173.108 C 70.069 172.871,64.360 172.020,61.255 169.461 C 59.933 168.371,60.892 167.138,64.296 165.551 C 65.187 165.135,66.236 164.501,66.626 164.143 C 68.105 162.784,69.475 162.646,82.375 162.548 C 90.833 162.484,92.500 162.433,92.500 162.241 C 92.500 160.987,94.030 160.502,98.019 160.493 L 101.250 160.485 106.167 156.568 C 110.687 152.966,115.220 149.363,122.583 143.519 C 124.142 142.282,126.305 140.561,127.392 139.694 C 128.478 138.827,129.603 138.056,129.892 137.981 C 130.534 137.815,133.653 137.917,133.836 138.110 M93.233 162.419 C 92.837 163.024,92.983 164.559,93.483 165.052 L 93.854 165.417 94.177 165.023 C 94.840 164.216,94.527 162.000,93.750 162.000 C 93.617 162.000,93.384 162.188,93.233 162.419 M297.888 163.171 C 315.918 164.171,331.843 173.154,342.199 188.167 C 352.870 203.636,355.017 224.916,347.645 242.135 L 346.819 244.064 347.743 247.081 C 348.251 248.740,348.667 250.151,348.667 250.216 C 348.667 250.280,347.485 250.335,346.042 250.336 L 343.417 250.339 342.271 252.084 C 325.037 278.326,288.361 285.231,262.350 267.132 C 236.885 249.411,230.119 214.380,247.210 188.750 C 257.973 172.610,273.886 163.939,294.417 163.029 C 294.692 163.016,296.254 163.081,297.888 163.171 M73.250 163.779 C 70.946 163.892,67.920 164.195,67.678 164.337 C 67.314 164.550,67.634 164.543,71.583 164.251 C 73.417 164.116,75.085 164.004,75.292 164.002 C 75.498 164.001,75.667 163.925,75.667 163.833 C 75.667 163.742,75.348 163.681,74.958 163.698 C 74.569 163.716,73.800 163.752,73.250 163.779 M78.917 163.843 C 82.366 164.033,92.333 164.026,92.333 163.833 C 92.333 163.724,89.644 163.676,84.542 163.695 C 79.192 163.714,77.429 163.761,78.917 163.843 M110.833 164.443 C 110.833 164.536,113.311 164.760,116.708 164.974 C 119.940 165.177,122.940 165.386,123.376 165.438 C 124.013 165.513,124.151 165.486,124.078 165.297 C 124.008 165.114,122.986 165.002,119.369 164.779 C 111.663 164.304,110.833 164.271,110.833 164.443 M85.360 178.258 C 85.106 178.815,85.117 179.976,85.382 180.499 C 86.068 181.854,86.885 179.910,86.259 178.411 C 85.973 177.728,85.628 177.669,85.360 178.258 M81.144 196.125 C 81.245 196.377,81.696 197.596,82.147 198.833 C 83.511 202.580,84.801 206.099,85.906 209.083 C 88.387 215.787,88.699 216.671,89.168 218.333 C 90.208 222.017,90.920 224.330,91.015 224.332 C 91.069 224.333,91.543 222.890,92.068 221.125 C 93.217 217.268,94.023 214.826,95.826 209.750 C 96.574 207.642,97.630 204.642,98.171 203.083 C 98.713 201.525,99.528 199.237,99.982 198.000 L 100.809 195.750 107.821 195.707 L 114.833 195.663 114.833 220.248 L 114.833 244.833 108.904 244.833 L 102.975 244.833 103.042 234.625 C 103.114 223.763,103.162 222.999,104.257 215.179 C 104.706 211.974,104.633 212.122,102.008 219.750 C 101.283 221.858,100.077 225.233,99.329 227.250 C 98.581 229.267,97.573 232.004,97.089 233.333 C 96.240 235.663,94.657 239.851,94.331 240.625 C 94.175 240.997,94.142 241.000,90.759 241.000 C 87.389 241.000,87.342 240.995,87.144 240.625 C 87.034 240.419,86.388 238.750,85.710 236.917 C 85.031 235.083,83.872 231.971,83.133 230.000 C 82.394 228.029,80.772 223.379,79.528 219.667 C 78.285 215.954,77.245 212.885,77.217 212.847 C 77.034 212.595,77.102 213.403,77.589 217.283 C 78.602 225.338,78.667 226.461,78.667 236.044 L 78.667 244.833 72.833 244.833 L 67.000 244.833 67.000 220.250 L 67.000 195.667 73.980 195.667 L 80.960 195.667 81.144 196.125 M149.667 196.070 C 159.576 197.949,164.570 204.298,163.664 213.861 C 162.723 223.800,155.825 229.044,143.375 229.286 L 138.833 229.374 138.833 237.104 L 138.833 244.833 132.250 244.833 L 125.667 244.833 125.667 220.239 L 125.667 195.646 136.875 195.707 C 146.807 195.762,148.264 195.804,149.667 196.070 M184.667 220.250 L 184.667 244.833 178.167 244.833 L 171.667 244.833 171.667 220.250 L 171.667 195.667 178.167 195.667 L 184.667 195.667 184.667 220.250 M232.333 220.250 L 232.333 244.833 225.750 244.833 L 219.167 244.833 219.167 236.662 L 219.167 228.490 217.151 228.537 L 215.136 228.583 212.801 232.583 C 209.418 238.377,208.080 240.673,206.824 242.833 L 205.711 244.750 198.180 244.793 L 190.648 244.837 191.130 244.127 C 191.395 243.736,192.476 242.104,193.532 240.500 C 194.589 238.896,197.085 235.110,199.080 232.086 C 203.277 225.725,202.973 226.284,202.381 226.015 C 196.659 223.417,193.249 216.474,194.156 209.268 C 194.962 202.861,198.169 198.976,204.333 196.937 C 207.746 195.808,209.056 195.713,221.542 195.688 L 232.333 195.667 232.333 220.250 M138.833 212.484 L 138.833 218.833 141.908 218.833 C 148.744 218.833,151.062 216.931,150.804 211.533 C 150.614 207.552,148.697 206.328,142.458 206.205 L 138.833 206.134 138.833 212.484 M211.097 206.441 C 207.810 207.146,206.392 209.392,206.991 212.946 C 207.604 216.584,209.804 217.862,215.625 217.966 L 219.167 218.029 219.167 212.098 L 219.167 206.167 215.708 206.180 C 213.329 206.190,211.890 206.271,211.097 206.441 M146.000 256.167 C 146.104 256.361,146.349 256.500,146.588 256.500 C 146.817 256.500,147.089 256.353,147.205 256.167 C 147.544 255.624,148.667 255.694,148.667 256.258 C 148.667 257.160,147.351 257.832,146.058 257.590 C 145.355 257.458,144.500 256.684,144.500 256.179 C 144.500 255.684,145.736 255.673,146.000 256.167 M167.667 256.167 C 167.771 256.361,168.016 256.500,168.254 256.500 C 168.483 256.500,168.756 256.353,168.872 256.167 C 169.161 255.704,170.333 255.686,170.333 256.144 C 170.333 257.024,168.936 257.817,167.771 257.598 C 166.990 257.452,166.167 256.753,166.167 256.235 C 166.167 255.688,167.381 255.633,167.667 256.167 M118.212 258.917 C 118.478 259.650,119.098 261.394,119.587 262.792 L 120.478 265.333 119.669 265.333 L 118.861 265.333 118.498 264.243 L 118.135 263.153 116.875 263.202 L 115.615 263.250 115.244 264.250 L 114.872 265.250 114.103 265.301 C 113.680 265.329,113.333 265.311,113.333 265.261 C 113.333 265.211,113.896 263.674,114.583 261.844 C 115.271 260.015,115.833 258.481,115.833 258.436 C 115.833 257.781,116.199 257.484,116.946 257.533 L 117.726 257.583 118.212 258.917 M130.683 257.692 C 133.957 258.803,133.839 264.198,130.517 265.310 C 127.199 266.421,124.397 262.619,126.117 259.339 C 126.925 257.798,128.897 257.086,130.683 257.692 M178.697 257.863 C 178.739 258.151,178.928 258.266,179.614 258.420 C 183.366 259.262,182.737 264.667,178.886 264.667 C 178.762 264.667,178.667 264.851,178.667 265.093 C 178.667 265.680,177.284 265.655,177.200 265.066 C 177.160 264.788,176.955 264.672,176.201 264.504 C 172.649 263.709,173.082 258.446,176.708 258.346 C 177.083 258.336,177.167 258.257,177.167 257.917 C 177.167 257.323,178.610 257.272,178.697 257.863 M187.628 257.758 C 190.488 258.953,190.587 263.680,187.782 265.078 C 184.669 266.629,181.512 263.615,182.569 260.102 C 183.216 257.954,185.530 256.882,187.628 257.758 M105.968 258.292 L 105.917 258.917 103.958 258.964 L 102.000 259.011 102.000 259.839 L 102.000 260.667 103.339 260.667 C 105.801 260.667,106.858 261.717,106.338 263.648 C 105.991 264.936,105.330 265.240,102.722 265.308 L 100.500 265.366 100.500 261.516 L 100.500 257.667 103.260 257.667 L 106.020 257.667 105.968 258.292 M113.000 261.500 L 113.000 265.333 112.250 265.333 L 111.500 265.333 111.500 262.167 L 111.500 259.000 110.500 259.000 L 109.500 259.000 109.499 259.792 C 109.492 263.669,108.507 265.801,106.907 265.399 C 106.277 265.241,106.357 263.923,106.997 263.919 C 107.709 263.915,107.891 263.235,107.970 260.292 L 108.040 257.667 110.520 257.667 L 113.000 257.667 113.000 261.500 M125.500 258.333 L 125.500 259.000 123.833 259.000 L 122.167 259.000 122.167 262.176 L 122.167 265.352 121.458 265.301 L 120.750 265.250 120.703 261.833 C 120.639 257.203,120.364 257.667,123.170 257.667 L 125.500 257.667 125.500 258.333 M139.667 260.833 L 139.667 264.000 140.083 264.000 C 140.495 264.000,140.500 264.017,140.500 265.417 L 140.500 266.833 139.750 266.833 L 139.000 266.833 139.000 266.083 L 139.000 265.333 136.750 265.333 L 134.500 265.333 134.500 266.083 L 134.500 266.833 133.833 266.833 L 133.167 266.833 133.167 265.428 C 133.167 264.106,133.188 264.020,133.535 263.970 C 134.052 263.895,134.295 262.937,134.531 260.042 L 134.725 257.667 137.196 257.667 L 139.667 257.667 139.667 260.833 M142.333 261.510 L 142.333 265.352 141.625 265.301 L 140.917 265.250 140.872 261.458 L 140.827 257.667 141.580 257.667 L 142.333 257.667 142.333 261.510 M145.037 260.148 L 145.083 262.630 146.651 260.148 L 148.218 257.667 148.942 257.667 L 149.667 257.667 149.667 261.500 L 149.667 265.333 149.004 265.333 L 148.342 265.333 148.296 262.714 L 148.250 260.094 146.646 262.672 L 145.041 265.250 144.271 265.301 L 143.500 265.352 143.500 261.509 L 143.500 257.667 144.246 257.667 L 144.991 257.667 145.037 260.148 M152.167 259.173 L 152.167 260.679 153.792 260.631 L 155.417 260.583 155.465 259.125 L 155.513 257.667 156.260 257.667 L 157.006 257.667 156.961 261.458 L 156.917 265.250 156.208 265.301 L 155.500 265.352 155.500 263.676 L 155.500 262.000 153.833 262.000 L 152.167 262.000 152.167 263.676 L 152.167 265.352 151.458 265.301 L 150.750 265.250 150.705 261.458 L 150.660 257.667 151.414 257.667 L 152.167 257.667 152.167 259.173 M159.333 260.200 C 159.333 262.054,159.383 262.684,159.518 262.549 C 159.620 262.447,160.351 261.326,161.143 260.057 L 162.583 257.750 163.375 257.699 L 164.167 257.648 164.167 261.491 L 164.167 265.333 163.421 265.333 L 162.675 265.333 162.629 262.801 L 162.583 260.269 161.003 262.801 L 159.423 265.333 158.711 265.333 L 158.000 265.333 158.000 261.500 L 158.000 257.667 158.667 257.667 L 159.333 257.667 159.333 260.200 M166.704 260.139 L 166.750 262.612 168.274 260.181 L 169.798 257.750 170.566 257.699 L 171.333 257.648 171.333 261.491 L 171.333 265.333 170.671 265.333 L 170.008 265.333 169.963 262.716 L 169.917 260.098 168.274 262.716 L 166.631 265.333 165.899 265.333 L 165.167 265.333 165.167 261.500 L 165.167 257.667 165.912 257.667 L 166.658 257.667 166.704 260.139 M192.000 259.173 L 192.000 260.679 193.625 260.631 L 195.250 260.583 195.298 259.125 L 195.346 257.667 196.006 257.667 L 196.667 257.667 196.667 261.500 L 196.667 265.333 196.000 265.333 L 195.333 265.333 195.333 263.667 L 195.333 262.000 193.673 262.000 L 192.012 262.000 191.964 263.625 L 191.917 265.250 191.208 265.301 L 190.500 265.352 190.500 261.510 L 190.500 257.667 191.250 257.667 L 192.000 257.667 192.000 259.173 M203.667 260.822 C 203.667 263.967,203.668 263.977,204.042 264.030 C 204.395 264.080,204.417 264.161,204.417 265.417 L 204.417 266.750 203.708 266.801 L 203.000 266.852 203.000 266.093 L 203.000 265.333 200.750 265.333 L 198.500 265.333 198.500 266.083 L 198.500 266.833 197.833 266.833 L 197.167 266.833 197.167 265.417 C 197.167 264.105,197.192 264.000,197.504 264.000 C 198.080 264.000,198.218 263.342,198.599 258.792 L 198.693 257.667 201.180 257.667 L 203.667 257.667 203.667 260.822 M128.403 258.995 C 127.407 259.398,126.831 260.923,127.146 262.324 C 127.677 264.687,130.895 264.748,131.485 262.407 C 132.060 260.125,130.333 258.214,128.403 258.995 M184.900 259.150 C 183.593 259.947,183.497 262.914,184.752 263.736 C 186.461 264.856,188.334 263.695,188.333 261.517 C 188.331 259.327,186.585 258.122,184.900 259.150 M135.995 259.792 C 135.989 260.601,135.799 262.252,135.582 263.382 L 135.460 264.015 136.772 263.966 L 138.083 263.917 138.129 261.458 L 138.176 259.000 137.088 259.000 L 136.000 259.000 135.995 259.792 M199.852 260.958 C 199.739 262.035,199.606 263.160,199.555 263.458 L 199.462 264.000 200.814 264.000 L 202.167 264.000 202.167 261.500 L 202.167 259.000 201.111 259.000 L 200.056 259.000 199.852 260.958 M175.964 259.925 C 174.613 260.659,175.109 262.880,176.708 263.261 L 177.167 263.369 177.167 261.518 C 177.167 259.462,177.065 259.328,175.964 259.925 M178.667 261.478 C 178.667 262.925,178.716 263.333,178.892 263.333 C 181.006 263.333,181.369 260.053,179.292 259.723 L 178.667 259.623 178.667 261.478 M116.527 260.717 C 116.329 261.246,116.167 261.714,116.167 261.756 C 116.167 261.799,116.509 261.833,116.928 261.833 C 117.779 261.833,117.776 261.849,117.169 260.420 L 116.887 259.755 116.527 260.717 M98.000 262.083 C 98.000 262.497,97.989 262.500,96.500 262.500 C 95.011 262.500,95.000 262.497,95.000 262.083 C 95.000 261.670,95.011 261.667,96.500 261.667 C 97.989 261.667,98.000 261.670,98.000 262.083 M94.667 262.167 C 94.667 262.536,96.024 262.505,79.750 262.505 C 63.299 262.505,64.667 262.536,64.667 262.167 C 64.667 261.836,64.778 261.833,79.667 261.833 C 94.556 261.833,94.667 261.836,94.667 262.167 M234.167 262.167 C 234.167 262.536,235.406 262.507,219.167 262.507 C 202.928 262.507,204.167 262.536,204.167 262.167 C 204.167 261.836,204.278 261.833,219.167 261.833 C 234.056 261.833,234.167 261.836,234.167 262.167 M102.000 263.000 L 102.000 264.000 102.958 263.998 C 104.233 263.994,104.735 263.730,104.803 263.027 C 104.886 262.168,104.629 262.000,103.230 262.000 L 102.000 262.000 102.000 263.000 " stroke="none" fill="#0c3c64" fill-rule="evenodd"></path><path id="path2" d="M250.000 144.612 C 239.615 145.179,230.290 147.233,211.876 153.007 C 209.836 153.647,206.499 154.690,204.459 155.326 C 188.558 160.283,178.786 162.316,168.526 162.803 L 166.136 162.917 168.675 166.833 C 170.071 168.987,171.536 171.249,171.931 171.860 L 172.649 172.970 169.470 178.526 C 167.722 181.581,166.255 184.176,166.211 184.291 C 166.048 184.717,171.983 184.418,177.000 183.746 C 183.994 182.811,193.773 180.387,205.917 176.579 C 230.707 168.805,239.618 166.751,250.125 166.387 C 251.798 166.328,253.167 166.246,253.167 166.203 C 253.167 166.161,252.390 164.879,251.440 163.355 C 250.490 161.830,249.017 159.465,248.166 158.099 C 246.968 156.176,246.656 155.555,246.784 155.349 C 247.722 153.840,253.167 144.666,253.167 144.594 C 253.167 144.503,251.865 144.510,250.000 144.612 M267.211 212.792 C 267.279 228.325,267.255 227.989,268.430 230.447 C 269.072 231.791,269.825 232.519,270.979 232.912 C 272.144 233.309,272.146 233.307,271.864 232.042 C 271.654 231.096,271.603 228.360,271.548 214.875 L 271.482 198.833 269.316 198.833 L 267.151 198.833 267.211 212.792 M294.621 212.375 C 294.564 223.818,294.511 226.200,294.280 227.746 C 292.938 236.726,289.821 241.857,283.964 244.722 C 278.055 247.613,268.426 247.558,262.417 244.600 C 260.601 243.707,260.603 243.706,261.675 244.994 C 265.174 249.199,270.139 251.079,277.750 251.082 C 290.452 251.086,296.663 245.451,298.687 232.083 C 298.830 231.135,298.907 226.143,298.953 214.792 L 299.017 198.833 296.853 198.833 L 294.689 198.833 294.621 212.375 M330.234 199.535 C 330.356 199.928,330.772 201.300,331.158 202.583 C 331.545 203.867,332.388 206.642,333.030 208.750 C 335.828 217.924,336.708 220.813,337.829 224.500 C 340.432 233.061,341.360 236.110,342.748 240.667 C 343.543 243.279,344.231 245.548,344.275 245.708 C 344.351 245.982,343.969 246.000,337.928 246.000 C 332.894 246.000,331.501 246.045,331.505 246.208 C 331.507 246.323,331.715 247.279,331.967 248.333 L 332.424 250.250 340.545 250.293 C 345.012 250.317,348.667 250.282,348.667 250.216 C 348.667 250.106,347.564 246.462,344.994 238.083 C 344.460 236.342,343.375 232.779,342.583 230.167 C 341.182 225.547,340.100 221.995,337.584 213.750 C 336.912 211.550,335.750 207.725,335.001 205.250 C 334.252 202.775,333.508 200.338,333.348 199.833 L 333.056 198.917 331.534 198.869 L 330.012 198.821 330.234 199.535 M319.097 212.791 C 318.839 214.052,318.195 216.846,317.666 219.000 L 316.704 222.917 319.381 222.963 C 322.821 223.022,322.715 223.182,321.765 219.367 C 321.452 218.111,320.882 215.658,320.498 213.917 C 320.114 212.175,319.747 210.694,319.683 210.624 C 319.618 210.555,319.355 211.530,319.097 212.791 M313.751 235.708 C 313.712 235.823,313.219 237.904,312.656 240.333 C 312.093 242.762,311.562 245.031,311.476 245.375 L 311.320 246.000 306.280 246.000 L 301.240 246.000 300.620 247.992 C 300.279 249.088,300.000 250.063,300.000 250.159 C 300.000 250.278,302.504 250.333,307.877 250.333 L 315.753 250.333 316.056 248.958 C 316.454 247.156,317.998 240.500,318.106 240.125 C 318.182 239.857,318.530 239.833,322.345 239.833 C 324.630 239.833,326.500 239.778,326.500 239.711 C 326.500 239.644,326.298 238.669,326.052 237.545 L 325.604 235.500 319.713 235.500 C 315.150 235.500,313.807 235.547,313.751 235.708 " stroke="none" fill="#facb05" fill-rule="evenodd"></path><path id="path3" d="M223.664 135.259 C 214.068 136.133,205.087 138.268,186.583 144.077 C 166.063 150.518,156.322 152.678,145.708 153.139 L 143.165 153.250 146.261 157.990 C 147.963 160.597,149.430 162.869,149.521 163.039 C 149.669 163.315,147.107 168.117,144.919 171.667 C 144.721 171.987,144.235 172.842,143.838 173.565 L 143.117 174.881 145.434 174.765 C 152.630 174.406,158.352 173.522,166.720 171.477 C 169.441 170.812,170.831 170.400,170.782 170.274 C 170.742 170.169,169.654 168.473,168.364 166.505 C 167.074 164.537,166.039 162.906,166.064 162.880 C 166.089 162.855,167.600 162.757,169.420 162.662 C 179.513 162.138,189.608 159.920,207.333 154.335 C 213.074 152.527,219.070 150.691,222.083 149.820 C 223.733 149.343,225.109 148.931,225.141 148.905 C 225.173 148.879,224.816 148.236,224.349 147.477 C 223.310 145.788,223.187 146.396,225.277 142.894 C 226.255 141.256,227.713 138.810,228.518 137.458 L 229.981 135.000 228.032 135.020 C 226.960 135.030,224.994 135.138,223.664 135.259 M251.732 194.569 C 251.496 195.186,251.787 225.248,252.048 227.092 C 253.155 234.913,256.462 241.427,260.310 243.364 C 260.552 243.486,261.250 243.869,261.861 244.216 C 266.053 246.594,273.302 247.396,279.392 246.155 C 288.267 244.346,293.253 237.693,294.312 226.250 C 294.407 225.224,294.504 217.814,294.532 209.417 L 294.583 194.417 287.167 194.417 L 279.750 194.417 279.657 210.500 C 279.557 227.884,279.580 227.437,278.649 229.927 C 277.065 234.160,270.235 234.593,268.349 230.580 C 267.092 227.905,266.958 225.660,267.027 208.417 L 267.083 194.417 259.454 194.373 C 252.952 194.336,251.811 194.365,251.732 194.569 M311.209 194.542 C 311.048 194.745,310.382 196.850,308.243 203.917 C 307.660 205.842,306.738 208.879,306.194 210.667 C 305.650 212.454,304.566 216.017,303.786 218.583 C 303.005 221.150,301.713 225.387,300.915 228.000 C 300.117 230.612,299.031 234.175,298.503 235.917 C 297.975 237.658,297.078 240.610,296.510 242.475 C 295.942 244.340,295.509 245.898,295.547 245.936 C 295.585 245.974,299.142 245.955,303.450 245.893 L 311.284 245.780 312.329 241.265 C 312.903 238.782,313.442 236.468,313.527 236.123 L 313.681 235.496 319.699 235.540 L 325.717 235.583 326.021 236.833 C 326.189 237.521,326.440 238.721,326.580 239.500 C 326.720 240.279,327.103 242.049,327.432 243.434 L 328.030 245.951 336.057 245.871 C 340.471 245.828,344.103 245.775,344.127 245.755 C 344.171 245.718,343.158 242.323,340.671 234.167 C 339.931 231.737,339.020 228.737,338.648 227.500 C 338.276 226.262,337.455 223.563,336.824 221.500 C 336.194 219.438,335.118 215.912,334.433 213.667 C 333.749 211.421,332.626 207.746,331.939 205.500 C 331.251 203.254,330.532 200.854,330.341 200.167 C 329.389 196.749,328.773 194.730,328.624 194.542 C 328.496 194.380,326.552 194.333,319.917 194.333 C 313.282 194.333,311.337 194.380,311.209 194.542 M266.010 211.333 C 266.101 226.403,266.115 226.967,266.455 228.455 C 267.467 232.890,269.662 234.676,273.833 234.458 C 277.662 234.257,279.440 232.520,280.527 227.917 C 280.667 227.323,280.751 222.569,280.820 211.417 L 280.917 195.750 287.167 195.750 L 293.417 195.750 293.417 210.417 C 293.417 227.445,293.330 228.686,291.810 233.480 C 289.031 242.239,281.856 246.477,271.183 245.662 C 260.697 244.862,255.212 239.457,253.382 228.120 C 253.145 226.649,253.099 224.322,253.045 211.040 L 252.982 195.663 259.450 195.706 L 265.917 195.750 266.010 211.333 M327.837 196.042 C 327.928 196.248,328.370 197.654,328.821 199.167 C 329.271 200.679,330.477 204.654,331.501 208.000 C 332.524 211.346,333.759 215.396,334.246 217.000 C 334.733 218.604,335.747 221.942,336.500 224.417 C 337.253 226.892,338.301 230.342,338.830 232.083 C 339.358 233.825,340.409 237.275,341.166 239.750 C 341.922 242.225,342.578 244.381,342.623 244.542 C 342.701 244.816,342.296 244.833,335.788 244.833 L 328.870 244.833 328.757 244.208 C 328.636 243.546,326.930 236.185,326.651 235.123 L 326.486 234.496 319.618 234.540 L 312.750 234.583 311.875 238.417 C 311.393 240.525,310.865 242.813,310.700 243.500 L 310.400 244.750 303.710 244.794 L 297.021 244.837 297.334 243.877 C 297.507 243.349,298.406 240.404,299.334 237.333 C 300.261 234.262,301.535 230.063,302.165 228.000 C 302.795 225.938,303.960 222.112,304.754 219.500 C 305.547 216.887,306.746 212.950,307.417 210.750 C 308.089 208.550,309.174 204.987,309.829 202.833 C 310.485 200.679,311.243 198.185,311.515 197.292 L 312.010 195.667 319.842 195.667 L 327.674 195.667 327.837 196.042 M318.852 208.205 C 318.340 210.741,316.511 218.825,315.598 222.583 C 315.375 223.499,315.213 224.269,315.238 224.294 C 315.263 224.319,317.273 224.319,319.705 224.294 L 324.126 224.250 323.239 220.583 C 322.750 218.567,321.859 214.742,321.257 212.083 C 319.477 204.226,319.611 204.441,318.852 208.205 M320.831 214.917 C 322.725 223.138,322.675 222.891,322.454 223.032 C 322.038 223.296,316.667 223.192,316.667 222.920 C 316.667 222.785,316.958 221.528,317.314 220.129 C 317.669 218.729,318.321 215.913,318.761 213.872 C 319.201 211.831,319.614 210.219,319.678 210.289 C 319.742 210.359,320.261 212.442,320.831 214.917 M144.667 256.000 C 144.667 256.092,144.875 256.167,145.130 256.167 C 145.386 256.167,145.720 256.315,145.878 256.500 C 146.035 256.683,146.352 256.833,146.583 256.833 C 146.814 256.833,147.132 256.683,147.289 256.500 C 147.446 256.317,147.745 256.167,147.954 256.167 C 148.540 256.167,148.442 256.772,147.792 257.168 C 147.494 257.350,147.340 257.499,147.449 257.499 C 147.791 257.500,148.482 256.771,148.595 256.292 C 148.737 255.688,147.442 255.565,147.285 256.167 C 147.219 256.421,147.058 256.500,146.610 256.500 C 146.169 256.500,145.996 256.417,145.917 256.167 C 145.804 255.813,144.667 255.661,144.667 256.000 M166.333 256.000 C 166.333 256.092,166.509 256.167,166.724 256.167 C 166.939 256.167,167.251 256.317,167.417 256.500 C 167.762 256.881,168.303 256.931,168.729 256.620 C 168.981 256.435,168.931 256.414,168.360 256.469 C 167.806 256.522,167.681 256.476,167.588 256.183 C 167.472 255.815,166.333 255.650,166.333 256.000 M169.000 256.000 C 169.000 256.092,169.225 256.167,169.500 256.167 C 169.775 256.167,170.000 256.225,170.000 256.296 C 170.000 256.559,169.453 257.195,169.107 257.335 C 168.836 257.444,168.818 257.481,169.032 257.489 C 169.440 257.505,170.136 256.826,170.262 256.292 C 170.366 255.849,170.347 255.833,169.685 255.833 C 169.308 255.833,169.000 255.908,169.000 256.000 M116.173 257.822 C 115.950 258.239,115.956 258.509,116.180 258.125 C 116.471 257.626,117.432 257.736,117.635 258.292 C 118.472 260.577,119.998 264.946,119.999 265.060 C 120.000 265.139,119.743 265.173,119.428 265.136 C 119.114 265.100,118.893 265.129,118.938 265.201 C 119.050 265.383,120.125 265.368,120.239 265.184 C 120.290 265.102,119.918 263.883,119.413 262.476 C 118.907 261.068,118.300 259.373,118.063 258.708 L 117.633 257.500 116.989 257.500 C 116.523 257.500,116.297 257.589,116.173 257.822 M128.083 257.701 C 127.418 257.934,126.551 258.592,126.310 259.048 C 126.179 259.295,126.284 259.236,126.627 258.872 C 128.380 257.008,131.831 257.748,132.493 260.130 C 133.071 262.213,132.365 264.099,130.667 265.007 C 129.984 265.372,130.109 265.432,130.880 265.109 C 135.178 263.310,132.480 256.164,128.083 257.701 M177.333 257.657 C 177.333 257.754,177.553 257.833,177.822 257.833 C 178.201 257.833,178.322 257.917,178.363 258.207 C 178.407 258.514,178.557 258.600,179.212 258.694 C 181.429 259.009,182.468 261.090,181.406 263.088 C 181.170 263.530,181.088 263.801,181.224 263.689 C 182.956 262.250,181.932 258.988,179.595 258.502 C 178.859 258.350,178.677 258.245,178.635 257.949 C 178.580 257.559,177.333 257.279,177.333 257.657 M184.773 257.735 C 183.515 258.201,182.491 259.610,182.522 260.833 C 182.536 261.411,182.538 261.410,182.677 260.703 C 183.524 256.407,189.481 257.045,189.496 261.433 C 189.501 262.676,189.281 263.379,188.617 264.250 C 188.142 264.873,188.137 264.890,188.553 264.514 C 191.652 261.705,188.640 256.303,184.773 257.735 M100.667 257.833 C 100.667 257.937,101.607 258.000,103.156 258.000 L 105.645 258.000 105.714 258.458 C 105.770 258.827,105.788 258.794,105.808 258.292 L 105.833 257.667 103.250 257.667 C 101.639 257.667,100.667 257.729,100.667 257.833 M108.167 257.833 C 108.167 257.936,109.028 258.000,110.417 258.000 L 112.667 258.000 112.667 261.572 L 112.667 265.145 112.208 265.221 C 111.866 265.278,111.897 265.291,112.333 265.273 L 112.917 265.250 112.961 261.458 L 113.006 257.667 110.586 257.667 C 109.084 257.667,108.167 257.730,108.167 257.833 M120.833 257.833 C 120.833 257.936,121.667 258.000,123.000 258.000 L 125.167 258.000 125.167 258.417 C 125.167 258.646,125.242 258.833,125.333 258.833 C 125.425 258.833,125.500 258.571,125.500 258.250 L 125.500 257.667 123.167 257.667 C 121.722 257.667,120.833 257.730,120.833 257.833 M134.686 258.125 C 134.698 258.407,134.735 258.471,134.782 258.292 C 134.849 258.032,135.104 258.000,137.096 258.000 L 139.333 258.000 139.333 261.167 L 139.333 264.333 139.750 264.333 C 140.435 264.333,140.395 266.610,139.708 266.714 C 139.282 266.779,139.288 266.785,139.792 266.808 L 140.333 266.833 140.333 265.428 C 140.333 264.098,140.313 264.020,139.958 263.970 C 139.587 263.917,139.583 263.890,139.538 260.792 L 139.493 257.667 137.080 257.667 L 134.667 257.667 134.686 258.125 M141.000 257.833 C 141.000 257.925,141.225 258.000,141.500 258.000 L 142.000 258.000 142.000 261.573 L 142.000 265.146 141.458 265.219 C 141.021 265.278,141.045 265.288,141.583 265.271 L 142.250 265.250 142.295 261.458 L 142.340 257.667 141.670 257.667 C 141.301 257.667,141.000 257.742,141.000 257.833 M143.583 257.833 C 143.522 257.932,143.719 258.000,144.070 258.000 L 144.659 258.000 144.704 260.829 L 144.750 263.658 146.500 260.871 C 148.220 258.132,148.262 258.082,148.875 258.032 L 149.500 257.980 149.500 261.573 L 149.500 265.167 149.004 265.167 L 148.508 265.167 148.462 262.296 L 148.417 259.425 146.653 262.254 C 144.929 265.019,144.874 265.086,144.236 265.185 L 143.583 265.286 144.253 265.310 C 144.913 265.333,144.934 265.315,145.662 264.125 C 146.068 263.460,146.816 262.279,147.325 261.500 L 148.250 260.083 148.333 262.667 L 148.417 265.250 149.042 265.302 L 149.667 265.353 149.667 261.510 L 149.667 257.667 148.997 257.667 C 148.260 257.667,148.156 257.795,145.917 261.460 C 144.826 263.244,144.833 263.252,144.833 260.250 L 144.833 257.667 144.260 257.667 C 143.944 257.667,143.640 257.742,143.583 257.833 M150.833 257.833 C 150.833 257.925,151.055 258.000,151.327 258.000 L 151.820 258.000 151.869 259.458 L 151.917 260.917 153.750 260.917 L 155.583 260.917 155.631 259.458 L 155.680 258.000 156.173 258.000 L 156.667 258.000 156.667 261.583 L 156.667 265.167 156.172 265.167 L 155.678 265.167 155.621 263.458 L 155.564 261.750 155.574 263.500 L 155.583 265.250 156.208 265.302 L 156.833 265.353 156.833 261.510 L 156.833 257.667 156.167 257.667 L 155.500 257.667 155.500 259.167 L 155.500 260.667 153.833 260.667 L 152.167 260.667 152.167 259.167 L 152.167 257.667 151.500 257.667 C 151.133 257.667,150.833 257.742,150.833 257.833 M158.000 257.888 C 158.000 258.039,158.159 258.086,158.500 258.036 L 159.000 257.962 159.000 260.731 C 159.000 263.686,159.046 263.843,159.619 262.874 C 159.821 262.531,160.147 262.006,160.343 261.708 C 160.539 261.410,160.662 261.167,160.617 261.167 C 160.572 261.167,160.283 261.559,159.976 262.038 L 159.417 262.910 159.371 260.288 L 159.325 257.667 158.662 257.667 C 158.223 257.667,158.000 257.741,158.000 257.888 M161.908 258.950 C 161.467 259.665,160.998 260.419,160.867 260.625 C 160.736 260.831,160.665 261.000,160.709 261.000 C 160.754 261.000,161.218 260.325,161.741 259.500 C 162.636 258.088,162.725 258.000,163.263 258.000 L 163.833 258.000 163.833 261.573 L 163.833 265.146 163.292 265.219 C 162.854 265.278,162.878 265.288,163.417 265.271 L 164.083 265.250 164.083 261.500 L 164.083 257.750 163.398 257.700 L 162.712 257.650 161.908 258.950 M165.205 261.458 L 165.250 265.250 165.861 265.301 C 166.416 265.347,166.516 265.286,166.963 264.634 C 167.997 263.124,170.010 259.782,169.965 259.650 C 169.938 259.575,169.129 260.784,168.167 262.338 C 166.485 265.052,166.395 265.163,165.875 265.165 L 165.333 265.167 165.333 261.583 L 165.333 258.000 165.829 258.000 L 166.325 258.000 166.371 260.760 L 166.417 263.521 166.739 262.969 C 167.009 262.508,167.016 262.454,166.781 262.645 C 166.520 262.858,166.500 262.692,166.500 260.270 L 166.500 257.667 165.830 257.667 L 165.160 257.667 165.205 261.458 M169.612 258.208 C 169.368 258.659,169.365 258.687,169.596 258.375 C 169.789 258.115,170.046 258.000,170.437 258.000 L 171.000 258.000 171.000 261.573 L 171.000 265.146 170.458 265.219 C 170.021 265.278,170.045 265.288,170.583 265.271 L 171.250 265.250 171.295 261.458 L 171.340 257.667 170.622 257.667 C 169.985 257.667,169.873 257.727,169.612 258.208 M190.500 257.833 C 190.500 257.925,190.722 258.000,190.994 258.000 L 191.487 258.000 191.535 259.458 L 191.583 260.917 193.319 260.964 C 194.360 260.993,195.123 260.943,195.227 260.839 C 195.346 260.720,194.848 260.667,193.617 260.667 L 191.833 260.667 191.833 259.167 L 191.833 257.667 191.167 257.667 C 190.800 257.667,190.500 257.742,190.500 257.833 M195.333 257.833 C 195.333 257.925,195.558 258.000,195.833 258.000 L 196.333 258.000 196.333 261.573 L 196.333 265.146 195.792 265.219 C 195.354 265.278,195.378 265.288,195.917 265.271 L 196.583 265.250 196.628 261.458 L 196.673 257.667 196.003 257.667 C 195.635 257.667,195.333 257.742,195.333 257.833 M198.698 258.792 L 198.730 259.917 198.790 258.958 L 198.850 258.000 201.088 258.000 L 203.326 258.000 203.371 261.125 C 203.416 264.223,203.420 264.250,203.792 264.303 C 204.406 264.391,204.366 266.667,203.750 266.667 C 203.367 266.667,203.333 266.606,203.333 265.917 L 203.333 265.167 200.833 265.167 L 198.333 265.167 198.333 265.917 C 198.333 266.639,198.315 266.667,197.833 266.667 L 197.333 266.667 197.333 265.500 C 197.333 264.440,197.364 264.333,197.671 264.333 C 198.056 264.333,198.293 263.838,198.411 262.782 C 198.488 262.092,198.462 262.151,198.148 263.375 C 198.016 263.888,197.912 264.000,197.570 264.000 C 197.155 264.000,197.153 264.006,197.202 265.375 L 197.250 266.750 197.833 266.750 C 198.400 266.750,198.418 266.730,198.468 266.042 L 198.519 265.333 200.843 265.333 L 203.167 265.333 203.167 266.083 C 203.167 266.829,203.170 266.833,203.750 266.833 L 204.333 266.833 204.333 265.428 C 204.333 264.098,204.313 264.020,203.958 263.970 C 203.587 263.917,203.583 263.890,203.538 260.792 L 203.493 257.667 201.080 257.667 L 198.667 257.667 198.698 258.792 M176.250 258.489 C 175.442 258.686,174.718 259.127,174.346 259.648 C 173.820 260.387,173.932 260.410,174.577 259.695 C 175.154 259.057,176.034 258.667,176.894 258.667 C 177.136 258.667,177.333 258.592,177.333 258.500 C 177.333 258.313,176.989 258.309,176.250 258.489 M114.855 261.272 C 114.288 262.797,113.851 264.073,113.885 264.107 C 113.919 264.141,114.411 262.920,114.978 261.395 C 115.546 259.869,115.982 258.593,115.948 258.560 C 115.915 258.526,115.423 259.746,114.855 261.272 M101.735 259.063 C 101.686 259.189,101.670 259.658,101.698 260.105 L 101.750 260.917 103.333 261.000 C 105.527 261.115,105.948 261.394,106.164 262.872 L 106.292 263.750 106.310 263.000 C 106.349 261.391,105.611 260.789,103.449 260.669 L 101.917 260.583 101.917 259.708 C 101.917 258.797,101.883 258.677,101.735 259.063 M109.111 260.875 C 108.995 263.091,108.809 263.976,108.299 264.750 L 107.969 265.250 108.396 264.789 C 109.027 264.107,109.843 258.832,109.317 258.833 C 109.263 258.833,109.170 259.752,109.111 260.875 M121.833 261.989 L 121.833 265.145 121.375 265.214 C 121.006 265.270,121.039 265.288,121.542 265.308 L 122.167 265.333 122.167 262.083 C 122.167 260.028,122.105 258.833,122.000 258.833 C 121.895 258.833,121.833 259.996,121.833 261.989 M127.517 259.342 C 125.036 261.823,128.329 266.197,130.886 263.815 L 131.417 263.320 130.768 263.743 C 128.021 265.538,125.326 260.992,128.019 259.105 C 128.233 258.956,128.322 258.833,128.217 258.833 C 128.112 258.833,127.797 259.062,127.517 259.342 M135.607 260.510 C 135.509 262.009,135.331 263.170,135.064 264.048 C 134.981 264.322,135.104 264.342,136.612 264.298 L 138.250 264.250 138.257 261.583 L 138.264 258.917 138.211 261.458 L 138.158 264.000 136.759 264.000 L 135.360 264.000 135.506 263.458 C 135.820 262.294,136.084 258.833,135.858 258.833 C 135.780 258.833,135.667 259.588,135.607 260.510 M199.778 258.944 C 199.717 259.006,199.664 259.474,199.661 259.986 C 199.656 260.914,199.478 262.523,199.250 263.708 L 199.130 264.333 200.731 264.333 L 202.333 264.333 202.296 261.542 L 202.259 258.750 202.209 261.375 L 202.158 264.000 200.735 264.000 C 199.456 264.000,199.320 263.970,199.400 263.708 C 199.611 263.021,200.090 258.833,199.958 258.833 C 199.920 258.833,199.839 258.883,199.778 258.944 M116.292 260.632 C 116.040 261.346,115.833 261.983,115.833 262.048 C 115.833 262.113,116.314 262.167,116.901 262.167 C 117.923 262.167,117.965 262.151,117.872 261.796 C 117.819 261.592,117.744 261.517,117.707 261.629 C 117.666 261.753,117.318 261.833,116.822 261.833 L 116.005 261.833 116.309 261.042 C 116.477 260.606,116.667 260.102,116.733 259.921 C 116.833 259.642,116.877 259.630,117.025 259.838 C 117.166 260.037,117.180 260.026,117.099 259.778 C 117.045 259.610,117.000 259.441,117.000 259.403 C 117.000 258.997,116.662 259.584,116.292 260.632 M160.999 262.295 C 159.369 264.891,159.208 265.090,158.666 265.186 L 158.083 265.289 158.704 265.311 C 159.303 265.333,159.353 265.289,160.121 264.070 C 160.558 263.375,161.351 262.129,161.882 261.300 C 162.413 260.471,162.826 259.728,162.799 259.650 C 162.772 259.571,161.962 260.762,160.999 262.295 M178.333 261.505 C 178.333 263.808,178.383 263.884,179.593 263.422 C 180.308 263.149,180.843 262.518,180.827 261.967 C 180.823 261.847,180.722 261.975,180.602 262.250 C 180.314 262.911,179.988 263.163,179.265 263.280 L 178.667 263.377 178.667 261.438 C 178.667 260.257,178.602 259.500,178.500 259.500 C 178.398 259.500,178.333 260.280,178.333 261.505 M175.461 260.125 C 174.631 261.000,174.753 262.618,175.694 263.225 C 176.218 263.562,177.333 263.762,177.333 263.519 C 177.333 263.417,177.149 263.333,176.925 263.333 C 175.347 263.333,174.527 261.281,175.654 260.154 C 175.922 259.886,176.086 259.667,176.018 259.667 C 175.951 259.667,175.700 259.873,175.461 260.125 M183.748 260.439 C 183.692 260.702,183.618 261.059,183.582 261.233 C 183.221 263.017,184.840 264.755,186.562 264.432 C 187.577 264.241,188.711 262.959,188.447 262.300 C 188.392 262.164,188.355 262.194,188.346 262.383 C 188.267 264.204,185.433 264.851,184.289 263.310 C 183.865 262.739,183.678 261.684,183.841 260.792 C 183.987 259.998,183.906 259.693,183.748 260.439 M108.052 261.250 C 108.053 261.800,108.084 262.005,108.121 261.705 C 108.158 261.406,108.157 260.956,108.119 260.705 C 108.081 260.455,108.051 260.700,108.052 261.250 M198.545 261.167 C 198.545 261.579,198.578 261.748,198.618 261.542 C 198.657 261.335,198.657 260.998,198.618 260.792 C 198.578 260.585,198.545 260.754,198.545 261.167 M167.897 260.875 C 167.323 261.848,167.286 261.931,167.578 261.583 C 167.916 261.180,168.208 260.667,168.099 260.667 C 168.055 260.667,167.964 260.760,167.897 260.875 M64.724 262.091 C 64.670 262.232,64.672 262.394,64.729 262.452 C 64.787 262.509,64.833 262.468,64.833 262.361 C 64.833 262.070,74.434 262.084,74.569 262.375 C 74.647 262.542,74.686 262.542,74.764 262.375 C 74.838 262.215,75.985 262.167,79.667 262.167 C 83.348 262.167,84.495 262.215,84.569 262.375 C 84.647 262.542,84.686 262.542,84.764 262.375 C 84.838 262.215,85.985 262.167,89.667 262.167 C 93.355 262.167,94.492 262.215,94.556 262.375 C 94.603 262.490,94.646 262.415,94.654 262.208 L 94.667 261.833 79.745 261.833 C 66.449 261.833,64.812 261.861,64.724 262.091 M95.000 262.167 C 95.000 262.495,95.077 262.510,96.458 262.465 C 97.622 262.426,97.917 262.366,97.917 262.167 C 97.917 261.967,97.622 261.907,96.458 261.869 C 95.077 261.823,95.000 261.839,95.000 262.167 M101.701 263.042 L 101.750 264.250 103.125 264.244 C 104.638 264.237,104.901 264.104,105.087 263.250 C 105.195 262.757,105.192 262.759,104.890 263.333 L 104.583 263.917 103.250 263.917 L 101.917 263.917 101.917 262.875 C 101.917 262.302,101.857 261.833,101.784 261.833 C 101.712 261.833,101.674 262.377,101.701 263.042 M151.833 263.489 L 151.833 265.146 151.292 265.219 C 150.854 265.278,150.878 265.288,151.417 265.271 L 152.083 265.250 152.131 263.542 C 152.161 262.445,152.117 261.833,152.006 261.833 C 151.899 261.833,151.833 262.459,151.833 263.489 M191.611 261.944 C 191.550 262.006,191.500 262.751,191.500 263.600 L 191.500 265.145 191.042 265.214 C 190.673 265.270,190.706 265.288,191.208 265.308 L 191.833 265.333 191.833 263.583 C 191.833 261.835,191.820 261.736,191.611 261.944 M204.250 262.000 C 204.182 262.110,205.804 262.167,208.990 262.167 C 212.108 262.167,213.833 262.226,213.833 262.333 C 213.833 262.425,213.950 262.500,214.093 262.500 C 214.236 262.500,214.307 262.425,214.250 262.333 C 214.182 262.224,215.804 262.167,218.990 262.167 C 222.108 262.167,223.833 262.226,223.833 262.333 C 223.833 262.425,223.950 262.500,224.093 262.500 C 224.236 262.500,224.307 262.425,224.250 262.333 C 224.182 262.224,225.804 262.167,228.990 262.167 C 232.108 262.167,233.833 262.226,233.833 262.333 C 233.833 262.425,233.908 262.500,234.000 262.500 C 234.092 262.500,234.167 262.350,234.167 262.167 C 234.167 261.788,204.483 261.623,204.250 262.000 M97.667 262.167 C 97.667 262.263,97.139 262.333,96.417 262.333 C 95.694 262.333,95.167 262.263,95.167 262.167 C 95.167 262.070,95.694 262.000,96.417 262.000 C 97.139 262.000,97.667 262.070,97.667 262.167 M115.025 264.083 C 114.636 265.169,113.883 265.635,113.610 264.958 C 113.560 264.834,113.521 264.867,113.513 265.042 C 113.503 265.273,113.638 265.333,114.167 265.333 C 114.533 265.333,114.833 265.305,114.833 265.270 C 114.833 265.235,115.020 264.710,115.249 264.103 C 115.477 263.496,115.608 263.000,115.539 263.000 C 115.470 263.000,115.239 263.487,115.025 264.083 M107.628 263.629 C 107.559 263.892,107.406 264.000,107.099 264.000 C 106.861 264.000,106.667 264.075,106.667 264.167 C 106.667 264.453,107.268 264.349,107.575 264.010 C 107.736 263.832,107.835 263.590,107.796 263.472 C 107.756 263.351,107.683 263.419,107.628 263.629 M133.237 264.225 C 133.189 264.349,133.173 264.967,133.200 265.600 L 133.250 266.750 133.875 266.802 L 134.500 266.853 134.500 266.098 L 134.500 265.342 136.875 265.291 L 139.250 265.240 136.708 265.203 L 134.167 265.167 134.167 265.917 C 134.167 266.606,134.133 266.667,133.750 266.667 C 133.345 266.667,133.333 266.633,133.333 265.500 C 133.333 264.595,133.387 264.333,133.573 264.333 C 133.706 264.333,133.860 264.258,133.917 264.167 C 133.973 264.075,133.863 264.000,133.671 264.000 C 133.480 264.000,133.284 264.101,133.237 264.225 M178.333 264.917 C 178.333 265.146,178.408 265.333,178.500 265.333 C 178.592 265.333,178.667 265.146,178.667 264.917 C 178.667 264.688,178.592 264.500,178.500 264.500 C 178.408 264.500,178.333 264.688,178.333 264.917 M101.458 265.290 C 101.940 265.323,102.727 265.323,103.208 265.290 C 103.690 265.256,103.296 265.228,102.333 265.228 C 101.371 265.228,100.977 265.256,101.458 265.290 " stroke="none" fill="#1eabfa" fill-rule="evenodd"></path><path id="path4" d="M132.042 137.948 C 132.202 137.990,132.465 137.990,132.625 137.948 C 132.785 137.906,132.654 137.872,132.333 137.872 C 132.012 137.872,131.881 137.906,132.042 137.948 M129.143 138.343 L 128.750 138.686 129.250 138.394 C 129.908 138.008,129.918 138.000,129.713 138.000 C 129.616 138.000,129.360 138.154,129.143 138.343 M133.640 138.115 C 133.798 138.178,133.675 138.408,133.224 138.894 L 132.583 139.583 133.285 138.931 C 133.946 138.317,134.066 137.983,133.615 138.013 C 133.487 138.022,133.496 138.058,133.640 138.115 M130.579 141.708 L 129.417 142.917 130.625 141.754 C 131.747 140.675,131.909 140.500,131.787 140.500 C 131.762 140.500,131.218 141.044,130.579 141.708 M127.579 144.875 L 126.250 146.250 127.625 144.921 C 128.902 143.686,129.076 143.500,128.954 143.500 C 128.929 143.500,128.311 144.119,127.579 144.875 M123.994 148.625 L 123.083 149.583 124.042 148.672 C 124.932 147.826,125.076 147.667,124.953 147.667 C 124.927 147.667,124.495 148.098,123.994 148.625 M121.078 151.708 L 120.083 152.750 121.125 151.755 C 121.698 151.208,122.167 150.739,122.167 150.714 C 122.167 150.590,122.002 150.741,121.078 151.708 M217.417 151.167 C 217.207 151.257,217.176 151.310,217.333 151.310 C 217.471 151.310,217.733 151.245,217.917 151.167 C 218.127 151.076,218.158 151.023,218.000 151.023 C 217.862 151.023,217.600 151.088,217.417 151.167 M145.877 153.120 C 146.131 153.158,146.506 153.157,146.711 153.117 C 146.916 153.078,146.708 153.046,146.250 153.048 C 145.792 153.049,145.624 153.081,145.877 153.120 M209.917 153.500 C 209.707 153.590,209.676 153.643,209.833 153.643 C 209.971 153.643,210.233 153.579,210.417 153.500 C 210.627 153.410,210.658 153.357,210.500 153.357 C 210.362 153.357,210.100 153.421,209.917 153.500 M117.913 155.042 L 116.583 156.417 117.958 155.087 C 119.235 153.853,119.409 153.667,119.288 153.667 C 119.263 153.667,118.644 154.285,117.913 155.042 M200.750 156.333 C 200.540 156.424,200.509 156.477,200.667 156.477 C 200.804 156.477,201.067 156.412,201.250 156.333 C 201.460 156.243,201.491 156.190,201.333 156.190 C 201.196 156.190,200.933 156.255,200.750 156.333 M114.833 158.250 C 114.150 158.938,113.629 159.500,113.675 159.500 C 113.721 159.500,114.317 158.938,115.000 158.250 C 115.683 157.563,116.204 157.000,116.158 157.000 C 116.112 157.000,115.516 157.563,114.833 158.250 M132.083 158.598 L 131.583 159.028 132.125 158.669 C 132.423 158.472,132.667 158.278,132.667 158.239 C 132.667 158.114,132.596 158.157,132.083 158.598 M193.250 158.500 C 193.040 158.590,193.009 158.643,193.167 158.643 C 193.304 158.643,193.567 158.579,193.750 158.500 C 193.960 158.410,193.991 158.357,193.833 158.357 C 193.696 158.357,193.433 158.421,193.250 158.500 M99.625 160.621 C 99.923 160.658,100.410 160.658,100.708 160.621 C 101.006 160.584,100.763 160.553,100.167 160.553 C 99.571 160.553,99.327 160.584,99.625 160.621 M111.578 161.708 L 110.583 162.750 111.625 161.755 C 112.198 161.208,112.667 160.739,112.667 160.714 C 112.667 160.590,112.502 160.741,111.578 161.708 M74.458 162.618 C 74.665 162.657,75.002 162.657,75.208 162.618 C 75.415 162.578,75.246 162.545,74.833 162.545 C 74.421 162.545,74.252 162.578,74.458 162.618 M90.621 162.620 C 90.917 162.657,91.442 162.658,91.788 162.622 C 92.134 162.586,91.892 162.555,91.250 162.555 C 90.608 162.554,90.325 162.583,90.621 162.620 M167.955 162.787 C 168.250 162.824,168.775 162.824,169.121 162.788 C 169.467 162.752,169.225 162.722,168.583 162.721 C 167.942 162.721,167.659 162.750,167.955 162.787 M92.872 163.500 C 92.872 163.821,92.906 163.952,92.948 163.792 C 92.990 163.631,92.990 163.369,92.948 163.208 C 92.906 163.048,92.872 163.179,92.872 163.500 M110.795 163.121 C 111.094 163.158,111.544 163.157,111.795 163.119 C 112.045 163.081,111.800 163.051,111.250 163.052 C 110.700 163.053,110.495 163.084,110.795 163.121 M291.667 163.174 C 251.182 165.395,225.847 208.327,243.412 244.944 C 260.404 280.368,307.547 288.349,335.334 260.505 C 338.186 257.647,343.333 251.161,343.333 250.424 C 343.333 250.377,340.879 250.318,337.879 250.294 L 332.424 250.250 331.967 248.333 C 331.715 247.279,331.507 246.323,331.505 246.208 C 331.501 246.045,332.892 246.000,337.917 246.000 C 341.446 246.000,344.333 245.940,344.333 245.867 C 344.333 245.794,344.090 245.753,343.792 245.778 C 343.494 245.802,339.826 245.852,335.640 245.889 L 328.031 245.956 327.417 243.384 C 327.079 241.970,326.743 240.461,326.671 240.031 C 326.598 239.602,326.530 239.381,326.520 239.542 C 326.501 239.811,326.184 239.833,322.345 239.833 C 318.530 239.833,318.182 239.857,318.106 240.125 C 317.998 240.500,316.454 247.156,316.056 248.958 L 315.753 250.333 307.877 250.333 C 302.504 250.333,300.000 250.278,300.000 250.159 C 300.000 250.063,300.279 249.089,300.619 247.995 L 301.238 246.005 306.244 245.945 C 308.997 245.912,307.706 245.913,303.375 245.946 C 299.044 245.980,295.500 245.959,295.500 245.900 C 295.500 245.840,295.960 244.283,296.522 242.438 C 297.084 240.593,297.975 237.658,298.503 235.917 C 299.031 234.175,300.117 230.612,300.915 228.000 C 301.713 225.387,303.005 221.150,303.786 218.583 C 304.566 216.017,305.650 212.454,306.194 210.667 C 306.738 208.879,307.660 205.842,308.243 203.917 C 310.382 196.850,311.048 194.745,311.209 194.542 C 311.337 194.380,313.282 194.333,319.917 194.333 C 328.919 194.333,328.671 194.313,328.885 195.083 C 328.936 195.267,329.210 196.183,329.494 197.119 L 330.010 198.821 331.547 198.869 L 333.083 198.917 333.936 201.750 C 334.406 203.308,335.408 206.608,336.163 209.083 C 336.919 211.558,337.969 215.008,338.498 216.750 C 339.485 219.998,341.957 228.113,344.033 234.917 C 344.677 237.025,345.547 239.894,345.967 241.292 C 346.386 242.690,346.777 243.833,346.833 243.833 C 346.994 243.833,348.574 239.936,349.154 238.110 C 359.533 205.432,340.265 171.758,306.931 164.317 C 303.891 163.639,296.898 162.919,294.417 163.029 C 294.142 163.041,292.904 163.106,291.667 163.174 M113.796 163.289 C 114.188 163.324,114.788 163.324,115.129 163.288 C 115.471 163.252,115.150 163.223,114.417 163.224 C 113.683 163.224,113.404 163.254,113.796 163.289 M116.961 163.454 C 117.261 163.491,117.711 163.490,117.961 163.452 C 118.212 163.414,117.967 163.384,117.417 163.385 C 116.867 163.386,116.662 163.417,116.961 163.454 M80.720 163.625 C 82.903 163.651,86.428 163.651,88.553 163.625 C 90.678 163.598,88.892 163.577,84.583 163.577 C 80.275 163.577,78.536 163.599,80.720 163.625 M66.491 164.292 L 65.917 164.917 66.542 164.342 C 67.123 163.808,67.243 163.667,67.116 163.667 C 67.088 163.667,66.807 163.948,66.491 164.292 M72.375 163.788 C 72.719 163.824,73.281 163.824,73.625 163.788 C 73.969 163.752,73.688 163.723,73.000 163.723 C 72.313 163.723,72.031 163.752,72.375 163.788 M69.628 163.954 C 69.928 163.991,70.378 163.990,70.628 163.952 C 70.878 163.914,70.633 163.884,70.083 163.885 C 69.533 163.886,69.328 163.917,69.628 163.954 M77.708 163.956 C 78.235 163.990,79.098 163.990,79.625 163.956 C 80.152 163.923,79.721 163.896,78.667 163.896 C 77.612 163.896,77.181 163.923,77.708 163.956 M74.292 164.118 C 74.498 164.157,74.835 164.157,75.042 164.118 C 75.248 164.078,75.079 164.045,74.667 164.045 C 74.254 164.045,74.085 164.078,74.292 164.118 M89.292 164.123 C 89.865 164.156,90.802 164.156,91.375 164.123 C 91.948 164.091,91.479 164.064,90.333 164.064 C 89.188 164.064,88.719 164.091,89.292 164.123 M71.960 164.285 C 72.168 164.324,72.468 164.323,72.627 164.281 C 72.786 164.239,72.617 164.207,72.250 164.209 C 71.883 164.211,71.753 164.245,71.960 164.285 M110.667 164.296 C 110.667 164.367,110.985 164.401,111.375 164.371 C 112.543 164.280,112.642 164.207,111.625 164.186 C 111.098 164.175,110.667 164.225,110.667 164.296 M69.460 164.451 C 69.668 164.491,69.968 164.490,70.127 164.448 C 70.286 164.406,70.117 164.374,69.750 164.375 C 69.383 164.377,69.253 164.411,69.460 164.451 M113.708 164.453 C 113.960 164.491,114.373 164.491,114.625 164.453 C 114.877 164.415,114.671 164.383,114.167 164.383 C 113.662 164.383,113.456 164.415,113.708 164.453 M116.627 164.618 C 116.834 164.658,117.134 164.656,117.294 164.615 C 117.453 164.573,117.283 164.540,116.917 164.542 C 116.550 164.544,116.420 164.578,116.627 164.618 M112.375 164.782 C 112.535 164.823,112.798 164.823,112.958 164.782 C 113.119 164.740,112.987 164.705,112.667 164.705 C 112.346 164.705,112.215 164.740,112.375 164.782 M119.208 164.782 C 119.369 164.823,119.631 164.823,119.792 164.782 C 119.952 164.740,119.821 164.705,119.500 164.705 C 119.179 164.705,119.048 164.740,119.208 164.782 M114.875 164.948 C 115.035 164.990,115.298 164.990,115.458 164.948 C 115.619 164.906,115.487 164.872,115.167 164.872 C 114.846 164.872,114.715 164.906,114.875 164.948 M121.708 164.948 C 121.869 164.990,122.131 164.990,122.292 164.948 C 122.452 164.906,122.321 164.872,122.000 164.872 C 121.679 164.872,121.548 164.906,121.708 164.948 M117.375 165.115 C 117.535 165.157,117.798 165.157,117.958 165.115 C 118.119 165.073,117.987 165.039,117.667 165.039 C 117.346 165.039,117.215 165.073,117.375 165.115 M119.875 165.282 C 120.035 165.323,120.298 165.323,120.458 165.282 C 120.619 165.240,120.487 165.205,120.167 165.205 C 119.846 165.205,119.715 165.240,119.875 165.282 M122.542 165.448 C 122.702 165.490,122.965 165.490,123.125 165.448 C 123.285 165.406,123.154 165.372,122.833 165.372 C 122.513 165.372,122.381 165.406,122.542 165.448 M60.667 168.573 C 60.667 168.797,60.728 169.018,60.803 169.065 C 60.878 169.111,60.907 168.928,60.868 168.658 C 60.780 168.062,60.667 168.015,60.667 168.573 M128.083 169.000 C 127.873 169.090,127.842 169.143,128.000 169.143 C 128.137 169.143,128.400 169.079,128.583 169.000 C 128.793 168.910,128.824 168.857,128.667 168.857 C 128.529 168.857,128.267 168.921,128.083 169.000 M122.000 170.621 C 122.138 170.674,122.305 170.799,122.372 170.900 C 122.448 171.013,122.496 170.972,122.497 170.792 C 122.499 170.596,122.377 170.504,122.125 170.513 C 121.874 170.522,121.833 170.558,122.000 170.621 M116.375 171.282 C 116.535 171.323,116.798 171.323,116.958 171.282 C 117.119 171.240,116.987 171.205,116.667 171.205 C 116.346 171.205,116.215 171.240,116.375 171.282 M115.042 171.448 C 115.202 171.490,115.465 171.490,115.625 171.448 C 115.785 171.406,115.654 171.372,115.333 171.372 C 115.013 171.372,114.881 171.406,115.042 171.448 M113.627 171.618 C 113.834 171.658,114.134 171.656,114.294 171.615 C 114.453 171.573,114.283 171.540,113.917 171.542 C 113.550 171.544,113.420 171.578,113.627 171.618 M112.208 171.782 C 112.369 171.823,112.631 171.823,112.792 171.782 C 112.952 171.740,112.821 171.705,112.500 171.705 C 112.179 171.705,112.048 171.740,112.208 171.782 M73.792 172.784 C 73.998 172.824,74.335 172.824,74.542 172.784 C 74.748 172.745,74.579 172.712,74.167 172.712 C 73.754 172.712,73.585 172.745,73.792 172.784 M77.708 172.955 C 78.052 172.991,78.615 172.991,78.958 172.955 C 79.302 172.919,79.021 172.889,78.333 172.889 C 77.646 172.889,77.365 172.919,77.708 172.955 M83.875 173.123 C 84.402 173.156,85.265 173.156,85.792 173.123 C 86.319 173.090,85.888 173.063,84.833 173.063 C 83.779 173.063,83.348 173.090,83.875 173.123 M145.960 174.785 C 146.168 174.824,146.468 174.823,146.627 174.781 C 146.786 174.739,146.617 174.707,146.250 174.709 C 145.883 174.711,145.753 174.745,145.960 174.785 M92.667 175.806 C 92.667 175.943,91.949 176.011,90.208 176.037 L 87.750 176.073 90.154 176.125 C 92.382 176.172,93.116 176.061,92.781 175.725 C 92.718 175.662,92.667 175.699,92.667 175.806 M84.375 179.250 C 84.377 179.617,84.411 179.747,84.451 179.540 C 84.491 179.332,84.490 179.032,84.448 178.873 C 84.406 178.714,84.374 178.883,84.375 179.250 M92.293 182.083 C 92.336 182.313,92.401 182.500,92.436 182.500 C 92.471 182.500,92.500 182.313,92.500 182.083 C 92.500 181.854,92.435 181.667,92.356 181.667 C 92.277 181.667,92.249 181.854,92.293 182.083 M90.794 181.951 C 91.001 181.991,91.301 181.990,91.460 181.948 C 91.620 181.906,91.450 181.874,91.083 181.875 C 90.717 181.877,90.586 181.911,90.794 181.951 M89.042 182.115 C 89.202 182.157,89.465 182.157,89.625 182.115 C 89.785 182.073,89.654 182.039,89.333 182.039 C 89.013 182.039,88.881 182.073,89.042 182.115 M91.705 188.667 C 91.705 188.987,91.740 189.119,91.782 188.958 C 91.823 188.798,91.823 188.535,91.782 188.375 C 91.740 188.215,91.705 188.346,91.705 188.667 M267.073 209.000 C 267.063 222.798,267.065 222.917,267.116 211.208 L 267.169 198.833 269.325 198.833 L 271.482 198.833 271.548 214.875 C 271.603 228.333,271.654 231.097,271.863 232.037 C 272.000 232.653,272.050 233.178,271.974 233.203 C 271.569 233.339,273.737 233.301,274.644 233.156 C 277.205 232.749,278.431 231.334,279.270 227.819 C 279.537 226.697,279.573 225.104,279.657 210.500 L 279.750 194.417 287.167 194.417 L 294.583 194.417 294.630 196.625 L 294.676 198.833 296.847 198.833 L 299.017 198.833 298.953 214.792 C 298.907 226.143,298.830 231.135,298.687 232.083 C 296.663 245.451,290.452 251.086,277.750 251.082 C 271.282 251.079,267.521 250.001,263.892 247.108 C 262.487 245.988,260.760 244.086,260.918 243.831 C 260.967 243.751,260.753 243.565,260.442 243.418 C 256.533 241.563,253.170 235.021,252.048 227.092 C 251.787 225.248,251.496 195.186,251.732 194.569 C 251.811 194.365,252.952 194.336,259.454 194.373 L 267.083 194.417 267.073 209.000 M70.458 195.791 C 72.406 195.818,75.594 195.818,77.542 195.791 C 79.490 195.765,77.896 195.743,74.000 195.743 C 70.104 195.743,68.510 195.765,70.458 195.791 M100.743 195.844 C 100.683 195.942,100.678 196.067,100.733 196.122 C 100.788 196.177,100.833 196.135,100.833 196.028 C 100.833 195.883,102.591 195.833,107.749 195.833 L 114.666 195.833 114.708 220.375 L 114.751 244.917 114.792 220.292 L 114.833 195.667 107.843 195.667 C 103.072 195.667,100.818 195.723,100.743 195.844 M125.708 220.292 L 125.749 244.917 125.792 220.376 L 125.834 195.836 136.292 195.792 L 146.750 195.747 136.208 195.707 L 125.667 195.667 125.708 220.292 M174.875 195.791 C 176.685 195.818,179.648 195.818,181.458 195.791 C 183.269 195.765,181.787 195.743,178.167 195.743 C 174.546 195.743,173.065 195.765,174.875 195.791 M216.042 195.792 C 219.044 195.817,223.956 195.817,226.958 195.792 C 229.960 195.766,227.504 195.745,221.500 195.745 C 215.496 195.745,213.040 195.766,216.042 195.792 M147.458 195.951 C 147.665 195.991,148.002 195.991,148.208 195.951 C 148.415 195.911,148.246 195.879,147.833 195.879 C 147.421 195.879,147.252 195.911,147.458 195.951 M209.294 195.951 C 209.501 195.991,209.801 195.990,209.960 195.948 C 210.120 195.906,209.950 195.874,209.583 195.875 C 209.217 195.877,209.086 195.911,209.294 195.951 M148.875 196.115 C 149.035 196.157,149.298 196.157,149.458 196.115 C 149.619 196.073,149.487 196.039,149.167 196.039 C 148.846 196.039,148.715 196.073,148.875 196.115 M294.579 211.500 C 294.579 218.421,294.600 221.252,294.625 217.792 C 294.650 214.331,294.650 208.669,294.625 205.208 C 294.600 201.748,294.579 204.579,294.579 211.500 M197.910 200.708 L 197.083 201.583 197.958 200.756 C 198.440 200.301,198.833 199.908,198.833 199.881 C 198.833 199.757,198.679 199.895,197.910 200.708 M159.493 200.708 C 160.184 201.444,160.333 201.577,160.333 201.451 C 160.333 201.425,159.977 201.068,159.542 200.660 L 158.750 199.917 159.493 200.708 M98.603 201.769 C 98.455 202.202,98.363 202.585,98.398 202.621 C 98.434 202.656,98.583 202.330,98.731 201.897 C 98.878 201.464,98.970 201.081,98.935 201.046 C 98.900 201.011,98.750 201.336,98.603 201.769 M330.690 201.333 C 330.690 201.471,330.755 201.733,330.833 201.917 C 330.924 202.127,330.977 202.158,330.977 202.000 C 330.977 201.862,330.912 201.600,330.833 201.417 C 330.743 201.207,330.690 201.176,330.690 201.333 M331.190 203.000 C 331.190 203.137,331.255 203.400,331.333 203.583 C 331.424 203.793,331.477 203.824,331.477 203.667 C 331.477 203.529,331.412 203.267,331.333 203.083 C 331.243 202.873,331.190 202.842,331.190 203.000 M83.929 204.000 C 83.990 204.229,84.110 204.529,84.195 204.667 C 84.302 204.840,84.315 204.790,84.238 204.500 C 84.176 204.271,84.057 203.971,83.972 203.833 C 83.865 203.660,83.851 203.710,83.929 204.000 M138.743 206.209 C 138.699 206.324,138.682 209.230,138.706 212.667 L 138.750 218.917 141.875 218.922 L 145.000 218.928 141.917 218.877 L 138.833 218.826 138.833 212.500 L 138.833 206.174 141.958 206.125 L 145.083 206.076 141.953 206.038 C 139.570 206.009,138.804 206.050,138.743 206.209 M215.792 206.125 L 219.167 206.174 219.167 212.083 L 219.167 217.992 216.542 218.042 L 213.917 218.092 216.625 218.130 L 219.333 218.167 219.333 212.083 L 219.333 206.000 215.875 206.038 L 212.417 206.076 215.792 206.125 M163.539 209.667 C 163.539 209.987,163.573 210.119,163.615 209.958 C 163.657 209.798,163.657 209.535,163.615 209.375 C 163.573 209.215,163.539 209.346,163.539 209.667 M194.063 211.667 C 194.063 212.721,194.090 213.152,194.123 212.625 C 194.156 212.098,194.156 211.235,194.123 210.708 C 194.090 210.181,194.063 210.612,194.063 211.667 M86.262 210.333 C 86.324 210.563,86.443 210.862,86.528 211.000 C 86.635 211.174,86.649 211.123,86.571 210.833 C 86.510 210.604,86.390 210.304,86.305 210.167 C 86.198 209.993,86.185 210.044,86.262 210.333 M333.523 210.667 C 333.523 210.804,333.588 211.067,333.667 211.250 C 333.757 211.460,333.810 211.491,333.810 211.333 C 333.810 211.196,333.745 210.933,333.667 210.750 C 333.576 210.540,333.523 210.509,333.523 210.667 M150.892 212.083 C 150.892 212.908,150.920 213.267,150.955 212.880 C 150.990 212.493,150.990 211.818,150.956 211.380 C 150.922 210.942,150.893 211.258,150.892 212.083 M163.714 212.083 C 163.716 212.542,163.748 212.709,163.786 212.456 C 163.825 212.203,163.824 211.828,163.784 211.623 C 163.744 211.418,163.713 211.625,163.714 212.083 M103.769 214.269 C 103.622 214.702,103.530 215.085,103.565 215.121 C 103.600 215.156,103.750 214.830,103.897 214.397 C 104.045 213.964,104.137 213.581,104.102 213.546 C 104.066 213.511,103.917 213.836,103.769 214.269 M163.539 214.333 C 163.539 214.654,163.573 214.785,163.615 214.625 C 163.657 214.465,163.657 214.202,163.615 214.042 C 163.573 213.881,163.539 214.012,163.539 214.333 M93.686 215.683 C 93.584 215.976,93.505 216.299,93.512 216.400 C 93.518 216.501,93.631 216.290,93.762 215.931 C 93.894 215.573,93.972 215.250,93.937 215.214 C 93.901 215.179,93.788 215.390,93.686 215.683 M103.872 218.333 C 103.872 218.654,103.906 218.785,103.948 218.625 C 103.990 218.465,103.990 218.202,103.948 218.042 C 103.906 217.881,103.872 218.012,103.872 218.333 M89.023 218.167 C 89.023 218.304,89.088 218.567,89.167 218.750 C 89.257 218.960,89.310 218.991,89.310 218.833 C 89.310 218.696,89.245 218.433,89.167 218.250 C 89.076 218.040,89.023 218.009,89.023 218.167 M335.857 218.333 C 335.857 218.471,335.921 218.733,336.000 218.917 C 336.090 219.127,336.143 219.158,336.143 219.000 C 336.143 218.862,336.079 218.600,336.000 218.417 C 335.910 218.207,335.857 218.176,335.857 218.333 M103.709 219.750 C 103.711 220.117,103.745 220.247,103.785 220.040 C 103.824 219.832,103.823 219.532,103.781 219.373 C 103.739 219.214,103.707 219.383,103.709 219.750 M103.542 221.250 C 103.544 221.617,103.578 221.747,103.618 221.540 C 103.658 221.332,103.656 221.032,103.615 220.873 C 103.573 220.714,103.540 220.883,103.542 221.250 M322.348 222.167 C 322.310 222.964,322.226 222.989,319.326 223.042 L 316.583 223.092 319.417 223.127 C 322.627 223.166,322.696 223.148,322.504 222.331 C 322.393 221.860,322.364 221.829,322.348 222.167 M103.379 222.833 C 103.379 223.246,103.411 223.415,103.451 223.208 C 103.491 223.002,103.491 222.665,103.451 222.458 C 103.411 222.252,103.379 222.421,103.379 222.833 M198.333 223.060 C 198.746 223.500,199.308 224.016,199.583 224.207 C 200.162 224.609,200.116 224.560,198.667 223.243 C 197.704 222.369,197.667 222.348,198.333 223.060 M159.740 223.208 L 159.250 223.750 159.792 223.260 C 160.090 222.991,160.333 222.748,160.333 222.719 C 160.333 222.590,160.196 222.703,159.740 223.208 M103.214 224.583 C 103.216 225.042,103.248 225.209,103.286 224.956 C 103.325 224.703,103.324 224.328,103.284 224.123 C 103.244 223.918,103.213 224.125,103.214 224.583 M78.375 225.083 C 78.377 225.450,78.411 225.580,78.451 225.373 C 78.491 225.166,78.490 224.866,78.448 224.706 C 78.406 224.547,78.374 224.717,78.375 225.083 M294.375 225.750 C 294.377 226.117,294.411 226.247,294.451 226.040 C 294.491 225.832,294.490 225.532,294.448 225.373 C 294.406 225.214,294.374 225.383,294.375 225.750 M103.052 226.917 C 103.053 227.467,103.084 227.672,103.121 227.372 C 103.158 227.072,103.157 226.622,103.119 226.372 C 103.081 226.122,103.051 226.367,103.052 226.917 M78.555 227.583 C 78.555 228.225,78.586 228.467,78.622 228.121 C 78.658 227.775,78.657 227.250,78.620 226.955 C 78.583 226.659,78.554 226.942,78.555 227.583 M338.690 227.667 C 338.690 227.804,338.755 228.067,338.833 228.250 C 338.924 228.460,338.977 228.491,338.977 228.333 C 338.977 228.196,338.912 227.933,338.833 227.750 C 338.743 227.540,338.690 227.509,338.690 227.667 M215.109 228.458 C 215.066 228.527,215.961 228.560,217.097 228.532 L 219.164 228.481 219.208 236.699 L 219.253 244.917 219.293 236.625 L 219.333 228.333 217.260 228.333 C 216.119 228.333,215.151 228.390,215.109 228.458 M147.294 229.118 C 147.501 229.158,147.801 229.156,147.960 229.115 C 148.120 229.073,147.950 229.040,147.583 229.042 C 147.217 229.044,147.086 229.078,147.294 229.118 M138.743 229.375 C 138.699 229.490,138.683 233.033,138.708 237.250 L 138.753 244.917 138.793 237.128 L 138.833 229.339 142.708 229.292 L 146.583 229.244 142.703 229.205 C 139.724 229.176,138.804 229.215,138.743 229.375 M198.603 232.750 C 198.454 232.979,198.212 233.373,198.064 233.625 L 197.794 234.083 198.129 233.678 C 198.525 233.198,199.050 232.333,198.945 232.333 C 198.905 232.333,198.751 232.521,198.603 232.750 M291.167 237.667 C 290.980 238.033,290.864 238.333,290.910 238.333 C 290.956 238.333,291.146 238.033,291.333 237.667 C 291.520 237.300,291.636 237.000,291.590 237.000 C 291.544 237.000,291.354 237.300,291.167 237.667 M326.200 238.083 C 326.200 238.267,326.260 238.604,326.333 238.833 C 326.439 239.163,326.467 239.181,326.467 238.917 C 326.467 238.733,326.407 238.396,326.333 238.167 C 326.228 237.837,326.200 237.819,326.200 238.083 M193.769 240.083 C 193.621 240.313,193.379 240.706,193.230 240.958 L 192.960 241.417 193.296 241.011 C 193.692 240.532,194.217 239.667,194.112 239.667 C 194.071 239.667,193.917 239.854,193.769 240.083 M90.750 240.833 L 87.250 240.927 90.698 240.963 C 92.858 240.986,94.185 240.938,94.250 240.833 C 94.307 240.742,94.330 240.683,94.302 240.703 C 94.273 240.723,92.675 240.782,90.750 240.833 M286.034 243.405 C 285.260 243.952,285.151 244.109,285.804 243.734 C 286.109 243.560,286.437 243.323,286.533 243.208 C 286.780 242.914,286.664 242.959,286.034 243.405 M343.523 243.500 C 343.523 243.637,343.588 243.900,343.667 244.083 C 343.757 244.293,343.810 244.324,343.810 244.167 C 343.810 244.029,343.745 243.767,343.667 243.583 C 343.576 243.373,343.523 243.342,343.523 243.500 M269.208 246.615 C 269.369 246.657,269.631 246.657,269.792 246.615 C 269.952 246.573,269.821 246.539,269.500 246.539 C 269.179 246.539,269.048 246.573,269.208 246.615 M276.875 246.615 C 277.035 246.657,277.298 246.657,277.458 246.615 C 277.619 246.573,277.487 246.539,277.167 246.539 C 276.846 246.539,276.715 246.573,276.875 246.615 M271.125 246.787 C 271.423 246.824,271.910 246.824,272.208 246.787 C 272.506 246.750,272.262 246.720,271.667 246.720 C 271.071 246.720,270.827 246.750,271.125 246.787 M274.458 246.787 C 274.756 246.824,275.244 246.824,275.542 246.787 C 275.840 246.750,275.596 246.720,275.000 246.720 C 274.404 246.720,274.160 246.750,274.458 246.787 M166.167 256.240 C 166.167 256.464,166.228 256.685,166.303 256.731 C 166.378 256.778,166.407 256.595,166.368 256.325 C 166.280 255.729,166.167 255.681,166.167 256.240 M100.572 261.500 C 100.572 263.654,100.595 264.535,100.624 263.458 C 100.653 262.381,100.653 260.619,100.624 259.542 C 100.595 258.465,100.572 259.346,100.572 261.500 M105.858 258.203 L 105.833 258.823 103.875 258.870 L 101.917 258.917 101.903 259.667 L 101.889 260.417 101.954 259.708 L 102.018 259.000 103.931 259.000 C 106.008 259.000,106.090 258.962,105.954 258.056 C 105.894 257.655,105.879 257.677,105.858 258.203 M108.058 259.000 C 108.058 259.779,108.087 260.098,108.122 259.708 C 108.157 259.319,108.157 258.681,108.122 258.292 C 108.087 257.902,108.058 258.221,108.058 259.000 M139.569 260.750 C 139.570 262.492,139.594 263.182,139.624 262.283 C 139.654 261.384,139.654 259.959,139.624 259.116 C 139.594 258.273,139.569 259.008,139.569 260.750 M140.905 261.417 C 140.905 263.525,140.929 264.365,140.958 263.282 C 140.987 262.200,140.987 260.475,140.958 259.449 C 140.928 258.423,140.905 259.308,140.905 261.417 M144.864 260.208 C 144.847 261.652,144.890 262.833,144.958 262.834 C 145.027 262.834,145.064 262.028,145.040 261.042 C 144.961 257.840,144.896 257.528,144.864 260.208 M150.738 261.417 C 150.738 263.525,150.762 264.365,150.791 263.282 C 150.820 262.200,150.820 260.475,150.791 259.449 C 150.762 258.423,150.738 259.308,150.738 261.417 M156.905 261.417 C 156.905 263.525,156.929 264.365,156.958 263.282 C 156.987 262.200,156.987 260.475,156.958 259.449 C 156.928 258.423,156.905 259.308,156.905 261.417 M166.567 260.250 C 166.568 261.717,166.593 262.294,166.624 261.534 C 166.655 260.773,166.655 259.573,166.624 258.867 C 166.593 258.161,166.567 258.783,166.567 260.250 M191.893 259.167 C 191.893 260.037,191.922 260.394,191.956 259.958 C 191.990 259.523,191.990 258.810,191.956 258.375 C 191.922 257.940,191.893 258.296,191.893 259.167 M203.569 260.750 C 203.570 262.492,203.594 263.182,203.624 262.283 C 203.654 261.384,203.654 259.959,203.624 259.116 C 203.594 258.273,203.569 259.008,203.569 260.750 M120.700 261.532 C 120.682 263.520,120.723 265.182,120.792 265.225 C 120.860 265.267,120.897 264.203,120.874 262.859 C 120.794 258.351,120.734 257.890,120.700 261.532 M143.571 261.667 C 143.571 263.729,143.595 264.573,143.624 263.542 C 143.654 262.510,143.654 260.823,143.624 259.792 C 143.595 258.760,143.571 259.604,143.571 261.667 M129.042 258.782 C 129.202 258.823,129.465 258.823,129.625 258.782 C 129.785 258.740,129.654 258.705,129.333 258.705 C 129.012 258.705,128.881 258.740,129.042 258.782 M185.875 258.782 C 186.035 258.823,186.298 258.823,186.458 258.782 C 186.619 258.740,186.487 258.705,186.167 258.705 C 185.846 258.705,185.715 258.740,185.875 258.782 M198.552 259.583 C 198.553 260.133,198.584 260.338,198.621 260.039 C 198.658 259.739,198.657 259.289,198.619 259.039 C 198.581 258.788,198.551 259.033,198.552 259.583 M109.406 259.052 C 109.356 259.182,109.343 259.729,109.376 260.269 L 109.437 261.250 109.468 260.125 L 109.500 259.000 110.500 259.000 L 111.500 259.000 111.500 262.167 C 111.500 263.908,111.556 265.333,111.625 265.334 C 111.694 265.334,111.712 263.890,111.667 262.125 L 111.583 258.917 110.540 258.867 C 109.760 258.830,109.473 258.877,109.406 259.052 M122.958 258.956 C 123.440 258.990,124.227 258.990,124.708 258.956 C 125.190 258.923,124.796 258.895,123.833 258.895 C 122.871 258.895,122.477 258.923,122.958 258.956 M130.449 259.159 C 130.741 259.337,131.094 259.693,131.234 259.950 C 131.373 260.207,131.490 260.315,131.493 260.192 C 131.502 259.903,130.437 258.833,130.142 258.834 C 130.018 258.834,130.156 258.981,130.449 259.159 M136.455 258.954 C 136.750 258.990,137.275 258.991,137.621 258.955 C 137.967 258.919,137.725 258.889,137.083 258.888 C 136.442 258.887,136.159 258.917,136.455 258.954 M200.455 258.954 C 200.750 258.990,201.275 258.991,201.621 258.955 C 201.967 258.919,201.725 258.889,201.083 258.888 C 200.442 258.887,200.159 258.917,200.455 258.954 M134.539 260.000 C 134.539 260.321,134.573 260.452,134.615 260.292 C 134.657 260.131,134.657 259.869,134.615 259.708 C 134.573 259.548,134.539 259.679,134.539 260.000 M176.952 259.618 C 177.083 259.712,177.175 260.406,177.212 261.589 L 177.268 263.417 177.259 261.514 C 177.252 259.969,177.203 259.598,177.000 259.543 C 176.821 259.494,176.808 259.516,176.952 259.618 M162.635 260.125 C 162.607 260.194,162.624 261.412,162.673 262.833 L 162.763 265.417 162.798 262.708 C 162.830 260.270,162.796 259.734,162.635 260.125 M182.381 261.417 C 182.382 261.875,182.415 262.043,182.453 261.789 C 182.491 261.536,182.490 261.161,182.451 260.956 C 182.411 260.751,182.380 260.958,182.381 261.417 M188.381 261.417 C 188.382 261.875,188.415 262.043,188.453 261.789 C 188.491 261.536,188.490 261.161,188.451 260.956 C 188.411 260.751,188.380 260.958,188.381 261.417 M182.045 261.500 C 182.045 261.912,182.078 262.081,182.118 261.875 C 182.157 261.669,182.157 261.331,182.118 261.125 C 182.078 260.919,182.045 261.087,182.045 261.500 M173.705 261.500 C 173.705 261.821,173.740 261.952,173.782 261.792 C 173.823 261.631,173.823 261.369,173.782 261.208 C 173.740 261.048,173.705 261.179,173.705 261.500 M95.417 261.772 C 96.612 261.896,98.001 261.907,98.000 261.792 C 98.000 261.723,97.306 261.679,96.458 261.693 C 95.610 261.708,95.142 261.743,95.417 261.772 M101.901 262.063 C 101.853 262.189,101.842 262.658,101.877 263.105 L 101.940 263.917 101.970 262.966 L 102.000 262.015 103.125 261.957 L 104.250 261.899 103.120 261.866 C 102.290 261.842,101.966 261.894,101.901 262.063 M152.958 261.956 C 153.440 261.990,154.227 261.990,154.708 261.956 C 155.190 261.923,154.796 261.895,153.833 261.895 C 152.871 261.895,152.477 261.923,152.958 261.956 M191.868 263.542 L 191.903 265.250 191.958 263.631 L 192.012 262.012 193.714 261.958 L 195.417 261.904 193.625 261.868 L 191.833 261.833 191.868 263.542 M115.613 263.118 C 115.568 263.191,116.097 263.225,116.789 263.194 C 117.699 263.154,118.089 263.200,118.203 263.361 C 118.327 263.538,118.345 263.532,118.291 263.333 C 118.217 263.060,115.771 262.864,115.613 263.118 M174.782 263.792 C 175.082 264.090,175.423 264.331,175.539 264.328 C 175.655 264.325,175.600 264.240,175.417 264.139 C 175.233 264.038,174.892 263.797,174.659 263.603 C 174.426 263.409,174.481 263.494,174.782 263.792 M106.566 264.067 C 106.517 264.196,106.503 264.552,106.535 264.859 C 106.586 265.348,106.603 265.319,106.673 264.625 C 106.754 263.813,106.724 263.656,106.566 264.067 M140.392 265.417 C 140.392 266.242,140.420 266.600,140.455 266.213 C 140.490 265.827,140.490 265.152,140.456 264.713 C 140.422 264.275,140.393 264.592,140.392 265.417 M204.390 265.417 C 204.391 266.150,204.420 266.429,204.456 266.037 C 204.491 265.645,204.490 265.045,204.454 264.704 C 204.419 264.363,204.390 264.683,204.390 265.417 M176.781 264.608 C 176.997 264.655,177.167 264.836,177.198 265.052 C 177.241 265.355,177.363 265.419,177.917 265.431 L 178.583 265.445 177.969 265.380 C 177.488 265.329,177.343 265.236,177.302 264.949 C 177.266 264.693,177.125 264.575,176.833 264.556 C 176.486 264.533,176.478 264.542,176.781 264.608 M139.013 266.042 C 139.006 266.477,139.060 266.833,139.133 266.833 C 139.206 266.833,139.239 266.552,139.204 266.208 C 139.109 265.241,139.028 265.170,139.013 266.042 M203.048 266.083 C 203.049 266.542,203.081 266.709,203.120 266.456 C 203.158 266.203,203.157 265.828,203.117 265.623 C 203.078 265.418,203.046 265.625,203.048 266.083 " stroke="none" fill="#668196" fill-rule="evenodd"></path></g></svg>